<?xml version="1.0" encoding="UTF-8" standalone="no"?>
<!DOCTYPE svg PUBLIC "-//W3C//DTD SVG 1.1//EN"
 "http://www.w3.org/Graphics/SVG/1.1/DTD/svg11.dtd">
<!-- Generated by graphviz version 2.43.0 (0)
 -->
<!-- Title: Flow::Flow Pages: 1 -->
<svg width="197pt" height="66pt"
 viewBox="0.00 0.00 197.00 66.00" xmlns="http://www.w3.org/2000/svg" xmlns:xlink="http://www.w3.org/1999/xlink">
<g id="graph0" class="graph" transform="scale(1 1) rotate(0) translate(4 62)">
<title>Flow::Flow</title>
<polygon fill="white" stroke="transparent" points="-4,4 -4,-62 193,-62 193,4 -4,4"/>
<!-- Node1 -->
<g id="node1" class="node">
<title>Node1</title>
<g id="a_node1"><a xlink:title="Construtor de cópia.">
<polygon fill="#bfbfbf" stroke="black" points="0,-19.5 0,-38.5 65,-38.5 65,-19.5 0,-19.5"/>
<text text-anchor="middle" x="32.5" y="-26.5" font-family="Helvetica,sans-Serif" font-size="10.00">Flow::Flow</text>
</a>
</g>
</g>
<!-- Node2 -->
<g id="node2" class="node">
<title>Node2</title>
<g id="a_node2"><a xlink:href="classFlow.html#a1f3858f90d141807377c2640fb5dd0fc" target="_top" xlink:title="Retorna o sistema de origem.">
<polygon fill="white" stroke="black" points="101,-38.5 101,-57.5 189,-57.5 189,-38.5 101,-38.5"/>
<text text-anchor="middle" x="145" y="-45.5" font-family="Helvetica,sans-Serif" font-size="10.00">Flow::getSource</text>
</a>
</g>
</g>
<!-- Node1&#45;&gt;Node2 -->
<g id="edge1" class="edge">
<title>Node1&#45;&gt;Node2</title>
<path fill="none" stroke="midnightblue" d="M65.16,-34.44C73.23,-35.83 82.11,-37.36 90.93,-38.87"/>
<polygon fill="midnightblue" stroke="midnightblue" points="90.35,-42.33 100.8,-40.57 91.54,-35.43 90.35,-42.33"/>
</g>
<!-- Node3 -->
<g id="node3" class="node">
<title>Node3</title>
<g id="a_node3"><a xlink:href="classFlow.html#aff8a0f8ca8dc50d37c92ab7556e172b5" target="_top" xlink:title="Retorna o sistema de destino.">
<polygon fill="white" stroke="black" points="103,-0.5 103,-19.5 187,-19.5 187,-0.5 103,-0.5"/>
<text text-anchor="middle" x="145" y="-7.5" font-family="Helvetica,sans-Serif" font-size="10.00">Flow::getTarget</text>
</a>
</g>
</g>
<!-- Node1&#45;&gt;Node3 -->
<g id="edge2" class="edge">
<title>Node1&#45;&gt;Node3</title>
<path fill="none" stroke="midnightblue" d="M65.16,-23.56C73.78,-22.07 83.34,-20.43 92.75,-18.81"/>
<polygon fill="midnightblue" stroke="midnightblue" points="93.58,-22.22 102.84,-17.08 92.39,-15.32 93.58,-22.22"/>
</g>
</g>
</svg>
