<?xml version="1.0" encoding="UTF-8" standalone="no"?>
<!DOCTYPE svg PUBLIC "-//W3C//DTD SVG 1.1//EN"
 "http://www.w3.org/Graphics/SVG/1.1/DTD/svg11.dtd">
<!-- Generated by graphviz version 2.43.0 (0)
 -->
<!-- Title: logisticFlow Pages: 1 -->
<svg width="76pt" height="163pt"
 viewBox="0.00 0.00 76.00 163.00" xmlns="http://www.w3.org/2000/svg" xmlns:xlink="http://www.w3.org/1999/xlink">
<g id="graph0" class="graph" transform="scale(1 1) rotate(0) translate(4 159)">
<title>logisticFlow</title>
<polygon fill="white" stroke="transparent" points="-4,4 -4,-159 72,-159 72,4 -4,4"/>
<!-- Node1 -->
<g id="node1" class="node">
<title>Node1</title>
<g id="a_node1"><a xlink:title=" ">
<polygon fill="#bfbfbf" stroke="black" points="0,-0.5 0,-19.5 68,-19.5 68,-0.5 0,-0.5"/>
<text text-anchor="middle" x="34" y="-7.5" font-family="Helvetica,sans-Serif" font-size="10.00">logisticFlow</text>
</a>
</g>
</g>
<!-- Node2 -->
<g id="node2" class="node">
<title>Node2</title>
<g id="a_node2"><a xlink:href="classFlow.html" target="_top" xlink:title="Classe base abstrata que define um fluxo entre dois Systems.">
<polygon fill="white" stroke="black" points="15,-57.5 15,-76.5 53,-76.5 53,-57.5 15,-57.5"/>
<text text-anchor="middle" x="34" y="-64.5" font-family="Helvetica,sans-Serif" font-size="10.00">Flow</text>
</a>
</g>
</g>
<!-- Node2&#45;&gt;Node1 -->
<g id="edge1" class="edge">
<title>Node2&#45;&gt;Node1</title>
<path fill="none" stroke="midnightblue" d="M34,-47.12C34,-37.82 34,-27.06 34,-19.71"/>
<polygon fill="midnightblue" stroke="midnightblue" points="30.5,-47.41 34,-57.41 37.5,-47.41 30.5,-47.41"/>
</g>
<!-- Node3 -->
<g id="node3" class="node">
<title>Node3</title>
<g id="a_node3"><a xlink:href="classSystem.html" target="_top" xlink:title="Representa um elemento de armazenamento dentro do modelo.">
<polygon fill="white" stroke="black" points="9,-135.5 9,-154.5 59,-154.5 59,-135.5 9,-135.5"/>
<text text-anchor="middle" x="34" y="-142.5" font-family="Helvetica,sans-Serif" font-size="10.00">System</text>
</a>
</g>
</g>
<!-- Node3&#45;&gt;Node2 -->
<g id="edge2" class="edge">
<title>Node3&#45;&gt;Node2</title>
<path fill="none" stroke="#9a32cd" stroke-dasharray="5,2" d="M34,-125.22C34,-109.7 34,-88.36 34,-76.62"/>
<polygon fill="#9a32cd" stroke="#9a32cd" points="30.5,-125.28 34,-135.28 37.5,-125.28 30.5,-125.28"/>
<text text-anchor="middle" x="50.5" y="-109" font-family="Helvetica,sans-Serif" font-size="10.00"> source</text>
<text text-anchor="middle" x="50.5" y="-98" font-family="Helvetica,sans-Serif" font-size="10.00">target</text>
</g>
</g>
</svg>
