<?xml version="1.0" encoding="UTF-8" standalone="no"?>
<!DOCTYPE svg PUBLIC "-//W3C//DTD SVG 1.1//EN"
 "http://www.w3.org/Graphics/SVG/1.1/DTD/svg11.dtd">
<!-- Generated by graphviz version 2.43.0 (0)
 -->
<!-- Title: System::getValue Pages: 1 -->
<svg width="504pt" height="206pt"
 viewBox="0.00 0.00 504.00 205.58" xmlns="http://www.w3.org/2000/svg" xmlns:xlink="http://www.w3.org/1999/xlink">
<g id="graph0" class="graph" transform="scale(1 1) rotate(0) translate(4 201.58)">
<title>System::getValue</title>
<polygon fill="white" stroke="transparent" points="-4,4 -4,-201.58 500,-201.58 500,4 -4,4"/>
<!-- Node1 -->
<g id="node1" class="node">
<title>Node1</title>
<g id="a_node1"><a xlink:title="Obtém o valor atual armazenado.">
<polygon fill="#bfbfbf" stroke="black" points="402,-95.5 402,-114.5 496,-114.5 496,-95.5 402,-95.5"/>
<text text-anchor="middle" x="449" y="-102.5" font-family="Helvetica,sans-Serif" font-size="10.00">System::getValue</text>
</a>
</g>
</g>
<!-- Node2 -->
<g id="node2" class="node">
<title>Node2</title>
<g id="a_node2"><a xlink:href="funcional__tests_8cpp.html#a943dfe0c597a01c9760c140715fed527" target="_top" xlink:title="Teste funcional composto (cenário mais complexo).">
<polygon fill="white" stroke="black" points="80.5,-171.5 80.5,-190.5 194.5,-190.5 194.5,-171.5 80.5,-171.5"/>
<text text-anchor="middle" x="137.5" y="-178.5" font-family="Helvetica,sans-Serif" font-size="10.00">complexFuncionalTest</text>
</a>
</g>
</g>
<!-- Node1&#45;&gt;Node2 -->
<g id="edge1" class="edge">
<title>Node1&#45;&gt;Node2</title>
<path fill="none" stroke="midnightblue" d="M435.36,-122.84C421,-141.41 395.66,-169.37 366,-181 306.62,-204.29 231.62,-198.19 184.34,-190.52"/>
<polygon fill="midnightblue" stroke="midnightblue" points="438.34,-124.7 441.5,-114.59 432.72,-120.52 438.34,-124.7"/>
</g>
<!-- Node4 -->
<g id="node4" class="node">
<title>Node4</title>
<g id="a_node4"><a xlink:href="classExponentialFlow.html#a8ebb0c298d3bea1d30c48cd79f10ddb1" target="_top" xlink:title="Calcula o valor do fluxo (proporcional ao source).">
<polygon fill="white" stroke="black" points="237,-38.5 237,-57.5 366,-57.5 366,-38.5 237,-38.5"/>
<text text-anchor="middle" x="301.5" y="-45.5" font-family="Helvetica,sans-Serif" font-size="10.00">ExponentialFlow::execute</text>
</a>
</g>
</g>
<!-- Node1&#45;&gt;Node4 -->
<g id="edge3" class="edge">
<title>Node1&#45;&gt;Node4</title>
<path fill="none" stroke="midnightblue" d="M415.35,-91.68C400.35,-85.6 382.3,-78.36 366,-72 353.59,-67.16 339.77,-61.92 328.19,-57.57"/>
<polygon fill="midnightblue" stroke="midnightblue" points="414.14,-94.96 424.72,-95.48 416.77,-88.48 414.14,-94.96"/>
</g>
<!-- Node5 -->
<g id="node5" class="node">
<title>Node5</title>
<g id="a_node5"><a xlink:href="classLogisticFlow.html#afdc1e2ec0eb61b71b367f8fc2677e371" target="_top" xlink:title="Calcula o valor do fluxo (crescimento logístico baseado no target).">
<polygon fill="white" stroke="black" points="245.5,-0.5 245.5,-19.5 357.5,-19.5 357.5,-0.5 245.5,-0.5"/>
<text text-anchor="middle" x="301.5" y="-7.5" font-family="Helvetica,sans-Serif" font-size="10.00">LogisticFlow::execute</text>
</a>
</g>
</g>
<!-- Node1&#45;&gt;Node5 -->
<g id="edge4" class="edge">
<title>Node1&#45;&gt;Node5</title>
<path fill="none" stroke="midnightblue" d="M433.63,-87.68C418.48,-70.47 393.08,-44.47 366,-29 359.31,-25.18 351.77,-22.05 344.28,-19.52"/>
<polygon fill="midnightblue" stroke="midnightblue" points="431.04,-90.03 440.21,-95.34 436.35,-85.47 431.04,-90.03"/>
</g>
<!-- Node6 -->
<g id="node6" class="node">
<title>Node6</title>
<g id="a_node6"><a xlink:href="funcional__tests_8cpp.html#a2c448ffaffdff4b03c825a01dffa6f27" target="_top" xlink:title="Teste funcional para verificar comportamento do fluxo exponencial.">
<polygon fill="white" stroke="black" points="74,-133.5 74,-152.5 201,-152.5 201,-133.5 74,-133.5"/>
<text text-anchor="middle" x="137.5" y="-140.5" font-family="Helvetica,sans-Serif" font-size="10.00">exponentialFuncionalTest</text>
</a>
</g>
</g>
<!-- Node1&#45;&gt;Node6 -->
<g id="edge5" class="edge">
<title>Node1&#45;&gt;Node6</title>
<path fill="none" stroke="midnightblue" d="M391.95,-111.88C338.14,-118.49 257.01,-128.45 201.1,-135.31"/>
<polygon fill="midnightblue" stroke="midnightblue" points="392.5,-115.34 402,-110.65 391.65,-108.39 392.5,-115.34"/>
</g>
<!-- Node7 -->
<g id="node7" class="node">
<title>Node7</title>
<g id="a_node7"><a xlink:href="funcional__tests_8cpp.html#a60914db64bde71b56d69320797266c29" target="_top" xlink:title="Teste funcional para verificar comportamento do fluxo logístico.">
<polygon fill="white" stroke="black" points="79.5,-95.5 79.5,-114.5 195.5,-114.5 195.5,-95.5 79.5,-95.5"/>
<text text-anchor="middle" x="137.5" y="-102.5" font-family="Helvetica,sans-Serif" font-size="10.00">logisticalFuncionalTest</text>
</a>
</g>
</g>
<!-- Node1&#45;&gt;Node7 -->
<g id="edge7" class="edge">
<title>Node1&#45;&gt;Node7</title>
<path fill="none" stroke="midnightblue" d="M391.97,-105C336.35,-105 251.52,-105 195.55,-105"/>
<polygon fill="midnightblue" stroke="midnightblue" points="392,-108.5 402,-105 392,-101.5 392,-108.5"/>
</g>
<!-- Node8 -->
<g id="node8" class="node">
<title>Node8</title>
<g id="a_node8"><a xlink:href="classModel.html#ad31ab57899deb9e33c9fd0312553383c" target="_top" xlink:title="Executa a simulação completa.">
<polygon fill="white" stroke="black" points="270.5,-152.5 270.5,-171.5 332.5,-171.5 332.5,-152.5 270.5,-152.5"/>
<text text-anchor="middle" x="301.5" y="-159.5" font-family="Helvetica,sans-Serif" font-size="10.00">Model::run</text>
</a>
</g>
</g>
<!-- Node1&#45;&gt;Node8 -->
<g id="edge9" class="edge">
<title>Node1&#45;&gt;Node8</title>
<path fill="none" stroke="midnightblue" d="M415.35,-118.32C400.35,-124.4 382.3,-131.64 366,-138 353.59,-142.84 339.77,-148.08 328.19,-152.43"/>
<polygon fill="midnightblue" stroke="midnightblue" points="416.77,-121.52 424.72,-114.52 414.14,-115.04 416.77,-121.52"/>
</g>
<!-- Node3 -->
<g id="node3" class="node">
<title>Node3</title>
<g id="a_node3"><a xlink:href="main_8cpp.html#a840291bc02cba5474a4cb46a9b9566fe" target="_top" xlink:title=" ">
<polygon fill="white" stroke="black" points="0,-133.5 0,-152.5 38,-152.5 38,-133.5 0,-133.5"/>
<text text-anchor="middle" x="19" y="-140.5" font-family="Helvetica,sans-Serif" font-size="10.00">main</text>
</a>
</g>
</g>
<!-- Node2&#45;&gt;Node3 -->
<g id="edge2" class="edge">
<title>Node2&#45;&gt;Node3</title>
<path fill="none" stroke="midnightblue" d="M94.22,-168.42C87.44,-166.32 80.52,-164.14 74,-162 62.1,-158.1 48.83,-153.44 38.43,-149.71"/>
<polygon fill="midnightblue" stroke="midnightblue" points="93.39,-171.82 103.98,-171.4 95.44,-165.13 93.39,-171.82"/>
</g>
<!-- Node6&#45;&gt;Node3 -->
<g id="edge6" class="edge">
<title>Node6&#45;&gt;Node3</title>
<path fill="none" stroke="midnightblue" d="M63.63,-143C54.38,-143 45.66,-143 38.48,-143"/>
<polygon fill="midnightblue" stroke="midnightblue" points="63.82,-146.5 73.82,-143 63.82,-139.5 63.82,-146.5"/>
</g>
<!-- Node7&#45;&gt;Node3 -->
<g id="edge8" class="edge">
<title>Node7&#45;&gt;Node3</title>
<path fill="none" stroke="midnightblue" d="M94.22,-117.58C87.44,-119.68 80.52,-121.86 74,-124 62.1,-127.9 48.83,-132.56 38.43,-136.29"/>
<polygon fill="midnightblue" stroke="midnightblue" points="95.44,-120.87 103.98,-114.6 93.39,-114.18 95.44,-120.87"/>
</g>
<!-- Node8&#45;&gt;Node2 -->
<g id="edge10" class="edge">
<title>Node8&#45;&gt;Node2</title>
<path fill="none" stroke="midnightblue" d="M260.47,-166.69C240.63,-169.02 216.33,-171.87 194.66,-174.41"/>
<polygon fill="midnightblue" stroke="midnightblue" points="260.88,-170.17 270.41,-165.53 260.07,-163.22 260.88,-170.17"/>
</g>
<!-- Node8&#45;&gt;Node6 -->
<g id="edge11" class="edge">
<title>Node8&#45;&gt;Node6</title>
<path fill="none" stroke="midnightblue" d="M260.37,-157.29C242.55,-155.2 221.16,-152.7 201.31,-150.37"/>
<polygon fill="midnightblue" stroke="midnightblue" points="260.07,-160.78 270.41,-158.47 260.88,-153.83 260.07,-160.78"/>
</g>
<!-- Node8&#45;&gt;Node7 -->
<g id="edge12" class="edge">
<title>Node8&#45;&gt;Node7</title>
<path fill="none" stroke="midnightblue" d="M267.42,-148.7C248.16,-141.13 223.35,-131.65 201,-124 191.45,-120.73 180.99,-117.44 171.4,-114.53"/>
<polygon fill="midnightblue" stroke="midnightblue" points="266.36,-152.05 276.95,-152.47 268.94,-145.54 266.36,-152.05"/>
</g>
</g>
</svg>
