<?xml version="1.0" encoding="UTF-8" standalone="no"?>
<!DOCTYPE svg PUBLIC "-//W3C//DTD SVG 1.1//EN"
 "http://www.w3.org/Graphics/SVG/1.1/DTD/svg11.dtd">
<!-- Generated by graphviz version 2.43.0 (0)
 -->
<!-- Title: Model::run Pages: 1 -->
<svg width="200pt" height="142pt"
 viewBox="0.00 0.00 200.00 142.00" xmlns="http://www.w3.org/2000/svg" xmlns:xlink="http://www.w3.org/1999/xlink">
<g id="graph0" class="graph" transform="scale(1 1) rotate(0) translate(4 138)">
<title>Model::run</title>
<polygon fill="white" stroke="transparent" points="-4,4 -4,-138 196,-138 196,4 -4,4"/>
<!-- Node1 -->
<g id="node1" class="node">
<title>Node1</title>
<g id="a_node1"><a xlink:title="Executa a simulação completa.">
<polygon fill="#bfbfbf" stroke="black" points="0,-57.5 0,-76.5 62,-76.5 62,-57.5 0,-57.5"/>
<text text-anchor="middle" x="31" y="-64.5" font-family="Helvetica,sans-Serif" font-size="10.00">Model::run</text>
</a>
</g>
</g>
<!-- Node2 -->
<g id="node2" class="node">
<title>Node2</title>
<g id="a_node2"><a xlink:href="classFlow.html#a1f3858f90d141807377c2640fb5dd0fc" target="_top" xlink:title="Retorna o sistema de origem.">
<polygon fill="white" stroke="black" points="101,-114.5 101,-133.5 189,-133.5 189,-114.5 101,-114.5"/>
<text text-anchor="middle" x="145" y="-121.5" font-family="Helvetica,sans-Serif" font-size="10.00">Flow::getSource</text>
</a>
</g>
</g>
<!-- Node1&#45;&gt;Node2 -->
<g id="edge1" class="edge">
<title>Node1&#45;&gt;Node2</title>
<path fill="none" stroke="midnightblue" d="M47.42,-76.65C60.6,-84.71 80.2,-96.25 98,-105 101.65,-106.79 105.51,-108.57 109.38,-110.27"/>
<polygon fill="midnightblue" stroke="midnightblue" points="108.34,-113.63 118.91,-114.33 111.08,-107.19 108.34,-113.63"/>
</g>
<!-- Node3 -->
<g id="node3" class="node">
<title>Node3</title>
<g id="a_node3"><a xlink:href="classFlow.html#aff8a0f8ca8dc50d37c92ab7556e172b5" target="_top" xlink:title="Retorna o sistema de destino.">
<polygon fill="white" stroke="black" points="103,-76.5 103,-95.5 187,-95.5 187,-76.5 103,-76.5"/>
<text text-anchor="middle" x="145" y="-83.5" font-family="Helvetica,sans-Serif" font-size="10.00">Flow::getTarget</text>
</a>
</g>
</g>
<!-- Node1&#45;&gt;Node3 -->
<g id="edge2" class="edge">
<title>Node1&#45;&gt;Node3</title>
<path fill="none" stroke="midnightblue" d="M62.01,-72.09C71.54,-73.71 82.36,-75.54 92.93,-77.34"/>
<polygon fill="midnightblue" stroke="midnightblue" points="92.51,-80.81 102.95,-79.04 93.68,-73.91 92.51,-80.81"/>
</g>
<!-- Node4 -->
<g id="node4" class="node">
<title>Node4</title>
<g id="a_node4"><a xlink:href="classSystem.html#aa7d17369d1034e7d8643a63f69d1901d" target="_top" xlink:title="Obtém o valor atual armazenado.">
<polygon fill="white" stroke="black" points="98,-38.5 98,-57.5 192,-57.5 192,-38.5 98,-38.5"/>
<text text-anchor="middle" x="145" y="-45.5" font-family="Helvetica,sans-Serif" font-size="10.00">System::getValue</text>
</a>
</g>
</g>
<!-- Node1&#45;&gt;Node4 -->
<g id="edge3" class="edge">
<title>Node1&#45;&gt;Node4</title>
<path fill="none" stroke="midnightblue" d="M62.01,-61.91C70.02,-60.55 78.93,-59.04 87.85,-57.53"/>
<polygon fill="midnightblue" stroke="midnightblue" points="88.6,-60.95 97.87,-55.83 87.43,-54.05 88.6,-60.95"/>
</g>
<!-- Node5 -->
<g id="node5" class="node">
<title>Node5</title>
<g id="a_node5"><a xlink:href="classSystem.html#aa3dee10a22a9f908a87f84917857d2f0" target="_top" xlink:title="Define um novo valor para o sistema.">
<polygon fill="white" stroke="black" points="98,-0.5 98,-19.5 192,-19.5 192,-0.5 98,-0.5"/>
<text text-anchor="middle" x="145" y="-7.5" font-family="Helvetica,sans-Serif" font-size="10.00">System::setValue</text>
</a>
</g>
</g>
<!-- Node1&#45;&gt;Node5 -->
<g id="edge4" class="edge">
<title>Node1&#45;&gt;Node5</title>
<path fill="none" stroke="midnightblue" d="M47.42,-57.35C60.6,-49.29 80.2,-37.75 98,-29 101.65,-27.21 105.51,-25.43 109.38,-23.73"/>
<polygon fill="midnightblue" stroke="midnightblue" points="111.08,-26.81 118.91,-19.67 108.34,-20.37 111.08,-26.81"/>
</g>
</g>
</svg>
