<?xml version="1.0" encoding="UTF-8" standalone="no"?>
<!DOCTYPE svg PUBLIC "-//W3C//DTD SVG 1.1//EN"
 "http://www.w3.org/Graphics/SVG/1.1/DTD/svg11.dtd">
<!-- Generated by graphviz version 2.43.0 (0)
 -->
<!-- Title: Flow::setTarget Pages: 1 -->
<svg width="329pt" height="104pt"
 viewBox="0.00 0.00 329.00 104.00" xmlns="http://www.w3.org/2000/svg" xmlns:xlink="http://www.w3.org/1999/xlink">
<g id="graph0" class="graph" transform="scale(1 1) rotate(0) translate(4 100)">
<title>Flow::setTarget</title>
<polygon fill="white" stroke="transparent" points="-4,4 -4,-100 325,-100 325,4 -4,4"/>
<!-- Node1 -->
<g id="node1" class="node">
<title>Node1</title>
<g id="a_node1"><a xlink:title="Define o sistema de destino do fluxo.">
<polygon fill="#bfbfbf" stroke="black" points="237,-38.5 237,-57.5 321,-57.5 321,-38.5 237,-38.5"/>
<text text-anchor="middle" x="279" y="-45.5" font-family="Helvetica,sans-Serif" font-size="10.00">Flow::setTarget</text>
</a>
</g>
</g>
<!-- Node2 -->
<g id="node2" class="node">
<title>Node2</title>
<g id="a_node2"><a xlink:href="funcional__tests_8cpp.html#a943dfe0c597a01c9760c140715fed527" target="_top" xlink:title="Teste funcional composto (cenário mais complexo).">
<polygon fill="white" stroke="black" points="80.5,-76.5 80.5,-95.5 194.5,-95.5 194.5,-76.5 80.5,-76.5"/>
<text text-anchor="middle" x="137.5" y="-83.5" font-family="Helvetica,sans-Serif" font-size="10.00">complexFuncionalTest</text>
</a>
</g>
</g>
<!-- Node1&#45;&gt;Node2 -->
<g id="edge1" class="edge">
<title>Node1&#45;&gt;Node2</title>
<path fill="none" stroke="midnightblue" d="M233.04,-60.25C213.82,-65.48 191.7,-71.51 173.69,-76.41"/>
<polygon fill="midnightblue" stroke="midnightblue" points="234.07,-63.59 242.8,-57.59 232.23,-56.84 234.07,-63.59"/>
</g>
<!-- Node4 -->
<g id="node4" class="node">
<title>Node4</title>
<g id="a_node4"><a xlink:href="funcional__tests_8cpp.html#a2c448ffaffdff4b03c825a01dffa6f27" target="_top" xlink:title="Teste funcional para verificar comportamento do fluxo exponencial.">
<polygon fill="white" stroke="black" points="74,-38.5 74,-57.5 201,-57.5 201,-38.5 74,-38.5"/>
<text text-anchor="middle" x="137.5" y="-45.5" font-family="Helvetica,sans-Serif" font-size="10.00">exponentialFuncionalTest</text>
</a>
</g>
</g>
<!-- Node1&#45;&gt;Node4 -->
<g id="edge3" class="edge">
<title>Node1&#45;&gt;Node4</title>
<path fill="none" stroke="midnightblue" d="M226.88,-48C218.47,-48 209.68,-48 201.03,-48"/>
<polygon fill="midnightblue" stroke="midnightblue" points="226.9,-51.5 236.9,-48 226.9,-44.5 226.9,-51.5"/>
</g>
<!-- Node5 -->
<g id="node5" class="node">
<title>Node5</title>
<g id="a_node5"><a xlink:href="funcional__tests_8cpp.html#a60914db64bde71b56d69320797266c29" target="_top" xlink:title="Teste funcional para verificar comportamento do fluxo logístico.">
<polygon fill="white" stroke="black" points="79.5,-0.5 79.5,-19.5 195.5,-19.5 195.5,-0.5 79.5,-0.5"/>
<text text-anchor="middle" x="137.5" y="-7.5" font-family="Helvetica,sans-Serif" font-size="10.00">logisticalFuncionalTest</text>
</a>
</g>
</g>
<!-- Node1&#45;&gt;Node5 -->
<g id="edge5" class="edge">
<title>Node1&#45;&gt;Node5</title>
<path fill="none" stroke="midnightblue" d="M233.04,-35.75C213.82,-30.52 191.7,-24.49 173.69,-19.59"/>
<polygon fill="midnightblue" stroke="midnightblue" points="232.23,-39.16 242.8,-38.41 234.07,-32.41 232.23,-39.16"/>
</g>
<!-- Node3 -->
<g id="node3" class="node">
<title>Node3</title>
<g id="a_node3"><a xlink:href="main_8cpp.html#a840291bc02cba5474a4cb46a9b9566fe" target="_top" xlink:title=" ">
<polygon fill="white" stroke="black" points="0,-38.5 0,-57.5 38,-57.5 38,-38.5 0,-38.5"/>
<text text-anchor="middle" x="19" y="-45.5" font-family="Helvetica,sans-Serif" font-size="10.00">main</text>
</a>
</g>
</g>
<!-- Node2&#45;&gt;Node3 -->
<g id="edge2" class="edge">
<title>Node2&#45;&gt;Node3</title>
<path fill="none" stroke="midnightblue" d="M94.22,-73.42C87.44,-71.32 80.52,-69.14 74,-67 62.1,-63.1 48.83,-58.44 38.43,-54.71"/>
<polygon fill="midnightblue" stroke="midnightblue" points="93.39,-76.82 103.98,-76.4 95.44,-70.13 93.39,-76.82"/>
</g>
<!-- Node4&#45;&gt;Node3 -->
<g id="edge4" class="edge">
<title>Node4&#45;&gt;Node3</title>
<path fill="none" stroke="midnightblue" d="M63.63,-48C54.38,-48 45.66,-48 38.48,-48"/>
<polygon fill="midnightblue" stroke="midnightblue" points="63.82,-51.5 73.82,-48 63.82,-44.5 63.82,-51.5"/>
</g>
<!-- Node5&#45;&gt;Node3 -->
<g id="edge6" class="edge">
<title>Node5&#45;&gt;Node3</title>
<path fill="none" stroke="midnightblue" d="M94.22,-22.58C87.44,-24.68 80.52,-26.86 74,-29 62.1,-32.9 48.83,-37.56 38.43,-41.29"/>
<polygon fill="midnightblue" stroke="midnightblue" points="95.44,-25.87 103.98,-19.6 93.39,-19.18 95.44,-25.87"/>
</g>
</g>
</svg>
