<?xml version="1.0" encoding="UTF-8" standalone="no"?>
<!DOCTYPE svg PUBLIC "-//W3C//DTD SVG 1.1//EN"
 "http://www.w3.org/Graphics/SVG/1.1/DTD/svg11.dtd">
<!-- Generated by graphviz version 2.43.0 (0)
 -->
<!-- Title: System::setValue Pages: 1 -->
<svg width="437pt" height="104pt"
 viewBox="0.00 0.00 437.00 104.00" xmlns="http://www.w3.org/2000/svg" xmlns:xlink="http://www.w3.org/1999/xlink">
<g id="graph0" class="graph" transform="scale(1 1) rotate(0) translate(4 100)">
<title>System::setValue</title>
<polygon fill="white" stroke="transparent" points="-4,4 -4,-100 433,-100 433,4 -4,4"/>
<!-- Node1 -->
<g id="node1" class="node">
<title>Node1</title>
<g id="a_node1"><a xlink:title="Define um novo valor para o sistema.">
<polygon fill="#bfbfbf" stroke="black" points="335,-57.5 335,-76.5 429,-76.5 429,-57.5 335,-57.5"/>
<text text-anchor="middle" x="382" y="-64.5" font-family="Helvetica,sans-Serif" font-size="10.00">System::setValue</text>
</a>
</g>
</g>
<!-- Node2 -->
<g id="node2" class="node">
<title>Node2</title>
<g id="a_node2"><a xlink:href="funcional__tests_8cpp.html#a2c448ffaffdff4b03c825a01dffa6f27" target="_top" xlink:title="Teste funcional para verificar comportamento do fluxo exponencial.">
<polygon fill="white" stroke="black" points="74,-76.5 74,-95.5 201,-95.5 201,-76.5 74,-76.5"/>
<text text-anchor="middle" x="137.5" y="-83.5" font-family="Helvetica,sans-Serif" font-size="10.00">exponentialFuncionalTest</text>
</a>
</g>
</g>
<!-- Node1&#45;&gt;Node2 -->
<g id="edge1" class="edge">
<title>Node1&#45;&gt;Node2</title>
<path fill="none" stroke="midnightblue" d="M324.7,-71.41C287.68,-74.31 239.21,-78.11 201,-81.1"/>
<polygon fill="midnightblue" stroke="midnightblue" points="325.12,-74.89 334.82,-70.62 324.57,-67.91 325.12,-74.89"/>
</g>
<!-- Node4 -->
<g id="node4" class="node">
<title>Node4</title>
<g id="a_node4"><a xlink:href="classModel.html#ad31ab57899deb9e33c9fd0312553383c" target="_top" xlink:title="Executa a simulação completa.">
<polygon fill="white" stroke="black" points="237,-38.5 237,-57.5 299,-57.5 299,-38.5 237,-38.5"/>
<text text-anchor="middle" x="268" y="-45.5" font-family="Helvetica,sans-Serif" font-size="10.00">Model::run</text>
</a>
</g>
</g>
<!-- Node1&#45;&gt;Node4 -->
<g id="edge3" class="edge">
<title>Node1&#45;&gt;Node4</title>
<path fill="none" stroke="midnightblue" d="M324.82,-57.47C315.94,-55.96 307.07,-54.46 299.1,-53.11"/>
<polygon fill="midnightblue" stroke="midnightblue" points="324.35,-60.94 334.8,-59.16 325.52,-54.04 324.35,-60.94"/>
</g>
<!-- Node3 -->
<g id="node3" class="node">
<title>Node3</title>
<g id="a_node3"><a xlink:href="main_8cpp.html#a840291bc02cba5474a4cb46a9b9566fe" target="_top" xlink:title=" ">
<polygon fill="white" stroke="black" points="0,-38.5 0,-57.5 38,-57.5 38,-38.5 0,-38.5"/>
<text text-anchor="middle" x="19" y="-45.5" font-family="Helvetica,sans-Serif" font-size="10.00">main</text>
</a>
</g>
</g>
<!-- Node2&#45;&gt;Node3 -->
<g id="edge2" class="edge">
<title>Node2&#45;&gt;Node3</title>
<path fill="none" stroke="midnightblue" d="M94.22,-73.42C87.44,-71.32 80.52,-69.14 74,-67 62.1,-63.1 48.83,-58.44 38.43,-54.71"/>
<polygon fill="midnightblue" stroke="midnightblue" points="93.39,-76.82 103.98,-76.4 95.44,-70.13 93.39,-76.82"/>
</g>
<!-- Node4&#45;&gt;Node2 -->
<g id="edge6" class="edge">
<title>Node4&#45;&gt;Node2</title>
<path fill="none" stroke="midnightblue" d="M227.15,-59.78C209,-65.15 187.8,-71.42 170.69,-76.48"/>
<polygon fill="midnightblue" stroke="midnightblue" points="228.28,-63.1 236.87,-56.91 226.29,-56.39 228.28,-63.1"/>
</g>
<!-- Node5 -->
<g id="node5" class="node">
<title>Node5</title>
<g id="a_node5"><a xlink:href="funcional__tests_8cpp.html#a943dfe0c597a01c9760c140715fed527" target="_top" xlink:title="Teste funcional composto (cenário mais complexo).">
<polygon fill="white" stroke="black" points="80.5,-38.5 80.5,-57.5 194.5,-57.5 194.5,-38.5 80.5,-38.5"/>
<text text-anchor="middle" x="137.5" y="-45.5" font-family="Helvetica,sans-Serif" font-size="10.00">complexFuncionalTest</text>
</a>
</g>
</g>
<!-- Node4&#45;&gt;Node5 -->
<g id="edge4" class="edge">
<title>Node4&#45;&gt;Node5</title>
<path fill="none" stroke="midnightblue" d="M226.68,-48C216.52,-48 205.44,-48 194.66,-48"/>
<polygon fill="midnightblue" stroke="midnightblue" points="226.87,-51.5 236.87,-48 226.87,-44.5 226.87,-51.5"/>
</g>
<!-- Node6 -->
<g id="node6" class="node">
<title>Node6</title>
<g id="a_node6"><a xlink:href="funcional__tests_8cpp.html#a60914db64bde71b56d69320797266c29" target="_top" xlink:title="Teste funcional para verificar comportamento do fluxo logístico.">
<polygon fill="white" stroke="black" points="79.5,-0.5 79.5,-19.5 195.5,-19.5 195.5,-0.5 79.5,-0.5"/>
<text text-anchor="middle" x="137.5" y="-7.5" font-family="Helvetica,sans-Serif" font-size="10.00">logisticalFuncionalTest</text>
</a>
</g>
</g>
<!-- Node4&#45;&gt;Node6 -->
<g id="edge7" class="edge">
<title>Node4&#45;&gt;Node6</title>
<path fill="none" stroke="midnightblue" d="M227.15,-36.22C209,-30.85 187.8,-24.58 170.69,-19.52"/>
<polygon fill="midnightblue" stroke="midnightblue" points="226.29,-39.61 236.87,-39.09 228.28,-32.9 226.29,-39.61"/>
</g>
<!-- Node5&#45;&gt;Node3 -->
<g id="edge5" class="edge">
<title>Node5&#45;&gt;Node3</title>
<path fill="none" stroke="midnightblue" d="M69.96,-48C58.27,-48 47.03,-48 38.19,-48"/>
<polygon fill="midnightblue" stroke="midnightblue" points="70.3,-51.5 80.3,-48 70.3,-44.5 70.3,-51.5"/>
</g>
<!-- Node6&#45;&gt;Node3 -->
<g id="edge8" class="edge">
<title>Node6&#45;&gt;Node3</title>
<path fill="none" stroke="midnightblue" d="M94.22,-22.58C87.44,-24.68 80.52,-26.86 74,-29 62.1,-32.9 48.83,-37.56 38.43,-41.29"/>
<polygon fill="midnightblue" stroke="midnightblue" points="95.44,-25.87 103.98,-19.6 93.39,-19.18 95.44,-25.87"/>
</g>
</g>
</svg>
