<?xml version="1.0" encoding="UTF-8" standalone="no"?>
<!DOCTYPE svg PUBLIC "-//W3C//DTD SVG 1.1//EN"
 "http://www.w3.org/Graphics/SVG/1.1/DTD/svg11.dtd">
<!-- Generated by graphviz version 2.43.0 (0)
 -->
<!-- Title: Flow::getTarget Pages: 1 -->
<svg width="477pt" height="180pt"
 viewBox="0.00 0.00 477.00 180.00" xmlns="http://www.w3.org/2000/svg" xmlns:xlink="http://www.w3.org/1999/xlink">
<g id="graph0" class="graph" transform="scale(1 1) rotate(0) translate(4 176)">
<title>Flow::getTarget</title>
<polygon fill="white" stroke="transparent" points="-4,4 -4,-176 473,-176 473,4 -4,4"/>
<!-- Node1 -->
<g id="node1" class="node">
<title>Node1</title>
<g id="a_node1"><a xlink:title="Retorna o sistema de destino.">
<polygon fill="#bfbfbf" stroke="black" points="385,-95.5 385,-114.5 469,-114.5 469,-95.5 385,-95.5"/>
<text text-anchor="middle" x="427" y="-102.5" font-family="Helvetica,sans-Serif" font-size="10.00">Flow::getTarget</text>
</a>
</g>
</g>
<!-- Node2 -->
<g id="node2" class="node">
<title>Node2</title>
<g id="a_node2"><a xlink:href="classLogisticFlow.html#afdc1e2ec0eb61b71b367f8fc2677e371" target="_top" xlink:title="Calcula o valor do fluxo (crescimento logístico baseado no target).">
<polygon fill="white" stroke="black" points="237,-152.5 237,-171.5 349,-171.5 349,-152.5 237,-152.5"/>
<text text-anchor="middle" x="293" y="-159.5" font-family="Helvetica,sans-Serif" font-size="10.00">LogisticFlow::execute</text>
</a>
</g>
</g>
<!-- Node1&#45;&gt;Node2 -->
<g id="edge1" class="edge">
<title>Node1&#45;&gt;Node2</title>
<path fill="none" stroke="midnightblue" d="M399.25,-119.23C384.62,-126.76 366.04,-135.89 349,-143 340.98,-146.35 332.15,-149.59 323.94,-152.42"/>
<polygon fill="midnightblue" stroke="midnightblue" points="400.99,-122.28 408.25,-114.56 397.76,-116.07 400.99,-122.28"/>
</g>
<!-- Node3 -->
<g id="node3" class="node">
<title>Node3</title>
<g id="a_node3"><a xlink:href="classFlow.html#a27af85e46a53aa5ff8c8016f012b0c24" target="_top" xlink:title="Construtor de cópia.">
<polygon fill="white" stroke="black" points="260.5,-114.5 260.5,-133.5 325.5,-133.5 325.5,-114.5 260.5,-114.5"/>
<text text-anchor="middle" x="293" y="-121.5" font-family="Helvetica,sans-Serif" font-size="10.00">Flow::Flow</text>
</a>
</g>
</g>
<!-- Node1&#45;&gt;Node3 -->
<g id="edge2" class="edge">
<title>Node1&#45;&gt;Node3</title>
<path fill="none" stroke="midnightblue" d="M374.87,-112.36C358.34,-114.74 340.5,-117.31 325.79,-119.42"/>
<polygon fill="midnightblue" stroke="midnightblue" points="375.56,-115.8 384.96,-110.91 374.56,-108.87 375.56,-115.8"/>
</g>
<!-- Node4 -->
<g id="node4" class="node">
<title>Node4</title>
<g id="a_node4"><a xlink:href="classFlow.html#a5f7550e37445bb6ae955beffd1fa857a" target="_top" xlink:title="Operador de atribuição.">
<polygon fill="white" stroke="black" points="250.5,-76.5 250.5,-95.5 335.5,-95.5 335.5,-76.5 250.5,-76.5"/>
<text text-anchor="middle" x="293" y="-83.5" font-family="Helvetica,sans-Serif" font-size="10.00">Flow::operator=</text>
</a>
</g>
</g>
<!-- Node1&#45;&gt;Node4 -->
<g id="edge3" class="edge">
<title>Node1&#45;&gt;Node4</title>
<path fill="none" stroke="midnightblue" d="M374.84,-97.64C361.96,-95.78 348.29,-93.81 335.93,-92.03"/>
<polygon fill="midnightblue" stroke="midnightblue" points="374.56,-101.13 384.96,-99.09 375.56,-94.2 374.56,-101.13"/>
</g>
<!-- Node5 -->
<g id="node5" class="node">
<title>Node5</title>
<g id="a_node5"><a xlink:href="classModel.html#ad31ab57899deb9e33c9fd0312553383c" target="_top" xlink:title="Executa a simulação completa.">
<polygon fill="white" stroke="black" points="262,-38.5 262,-57.5 324,-57.5 324,-38.5 262,-38.5"/>
<text text-anchor="middle" x="293" y="-45.5" font-family="Helvetica,sans-Serif" font-size="10.00">Model::run</text>
</a>
</g>
</g>
<!-- Node1&#45;&gt;Node5 -->
<g id="edge4" class="edge">
<title>Node1&#45;&gt;Node5</title>
<path fill="none" stroke="midnightblue" d="M399.25,-90.77C384.62,-83.24 366.04,-74.11 349,-67 340.98,-63.65 332.15,-60.41 323.94,-57.58"/>
<polygon fill="midnightblue" stroke="midnightblue" points="397.76,-93.93 408.25,-95.44 400.99,-87.72 397.76,-93.93"/>
</g>
<!-- Node6 -->
<g id="node6" class="node">
<title>Node6</title>
<g id="a_node6"><a xlink:href="funcional__tests_8cpp.html#a943dfe0c597a01c9760c140715fed527" target="_top" xlink:title="Teste funcional composto (cenário mais complexo).">
<polygon fill="white" stroke="black" points="80.5,-76.5 80.5,-95.5 194.5,-95.5 194.5,-76.5 80.5,-76.5"/>
<text text-anchor="middle" x="137.5" y="-83.5" font-family="Helvetica,sans-Serif" font-size="10.00">complexFuncionalTest</text>
</a>
</g>
</g>
<!-- Node5&#45;&gt;Node6 -->
<g id="edge5" class="edge">
<title>Node5&#45;&gt;Node6</title>
<path fill="none" stroke="midnightblue" d="M251.82,-57.95C228.69,-63.67 199.78,-70.83 176.95,-76.48"/>
<polygon fill="midnightblue" stroke="midnightblue" points="252.81,-61.31 261.67,-55.51 251.13,-54.51 252.81,-61.31"/>
</g>
<!-- Node8 -->
<g id="node8" class="node">
<title>Node8</title>
<g id="a_node8"><a xlink:href="funcional__tests_8cpp.html#a2c448ffaffdff4b03c825a01dffa6f27" target="_top" xlink:title="Teste funcional para verificar comportamento do fluxo exponencial.">
<polygon fill="white" stroke="black" points="74,-38.5 74,-57.5 201,-57.5 201,-38.5 74,-38.5"/>
<text text-anchor="middle" x="137.5" y="-45.5" font-family="Helvetica,sans-Serif" font-size="10.00">exponentialFuncionalTest</text>
</a>
</g>
</g>
<!-- Node5&#45;&gt;Node8 -->
<g id="edge7" class="edge">
<title>Node5&#45;&gt;Node8</title>
<path fill="none" stroke="midnightblue" d="M251.45,-48C236.05,-48 218.12,-48 201.14,-48"/>
<polygon fill="midnightblue" stroke="midnightblue" points="251.67,-51.5 261.67,-48 251.67,-44.5 251.67,-51.5"/>
</g>
<!-- Node9 -->
<g id="node9" class="node">
<title>Node9</title>
<g id="a_node9"><a xlink:href="funcional__tests_8cpp.html#a60914db64bde71b56d69320797266c29" target="_top" xlink:title="Teste funcional para verificar comportamento do fluxo logístico.">
<polygon fill="white" stroke="black" points="79.5,-0.5 79.5,-19.5 195.5,-19.5 195.5,-0.5 79.5,-0.5"/>
<text text-anchor="middle" x="137.5" y="-7.5" font-family="Helvetica,sans-Serif" font-size="10.00">logisticalFuncionalTest</text>
</a>
</g>
</g>
<!-- Node5&#45;&gt;Node9 -->
<g id="edge9" class="edge">
<title>Node5&#45;&gt;Node9</title>
<path fill="none" stroke="midnightblue" d="M251.82,-38.05C228.69,-32.33 199.78,-25.17 176.95,-19.52"/>
<polygon fill="midnightblue" stroke="midnightblue" points="251.13,-41.49 261.67,-40.49 252.81,-34.69 251.13,-41.49"/>
</g>
<!-- Node7 -->
<g id="node7" class="node">
<title>Node7</title>
<g id="a_node7"><a xlink:href="main_8cpp.html#a840291bc02cba5474a4cb46a9b9566fe" target="_top" xlink:title=" ">
<polygon fill="white" stroke="black" points="0,-38.5 0,-57.5 38,-57.5 38,-38.5 0,-38.5"/>
<text text-anchor="middle" x="19" y="-45.5" font-family="Helvetica,sans-Serif" font-size="10.00">main</text>
</a>
</g>
</g>
<!-- Node6&#45;&gt;Node7 -->
<g id="edge6" class="edge">
<title>Node6&#45;&gt;Node7</title>
<path fill="none" stroke="midnightblue" d="M94.22,-73.42C87.44,-71.32 80.52,-69.14 74,-67 62.1,-63.1 48.83,-58.44 38.43,-54.71"/>
<polygon fill="midnightblue" stroke="midnightblue" points="93.39,-76.82 103.98,-76.4 95.44,-70.13 93.39,-76.82"/>
</g>
<!-- Node8&#45;&gt;Node7 -->
<g id="edge8" class="edge">
<title>Node8&#45;&gt;Node7</title>
<path fill="none" stroke="midnightblue" d="M63.63,-48C54.38,-48 45.66,-48 38.48,-48"/>
<polygon fill="midnightblue" stroke="midnightblue" points="63.82,-51.5 73.82,-48 63.82,-44.5 63.82,-51.5"/>
</g>
<!-- Node9&#45;&gt;Node7 -->
<g id="edge10" class="edge">
<title>Node9&#45;&gt;Node7</title>
<path fill="none" stroke="midnightblue" d="M94.22,-22.58C87.44,-24.68 80.52,-26.86 74,-29 62.1,-32.9 48.83,-37.56 38.43,-41.29"/>
<polygon fill="midnightblue" stroke="midnightblue" points="95.44,-25.87 103.98,-19.6 93.39,-19.18 95.44,-25.87"/>
</g>
</g>
</svg>
