<?xml version="1.0" encoding="UTF-8" standalone="no"?>
<!DOCTYPE svg PUBLIC "-//W3C//DTD SVG 1.1//EN"
 "http://www.w3.org/Graphics/SVG/1.1/DTD/svg11.dtd">
<!-- Generated by graphviz version 2.43.0 (0)
 -->
<!-- Title: LogisticFlow Pages: 1 -->
<svg width="79pt" height="163pt"
 viewBox="0.00 0.00 79.00 163.00" xmlns="http://www.w3.org/2000/svg" xmlns:xlink="http://www.w3.org/1999/xlink">
<g id="graph0" class="graph" transform="scale(1 1) rotate(0) translate(4 159)">
<title>LogisticFlow</title>
<polygon fill="white" stroke="transparent" points="-4,4 -4,-159 75,-159 75,4 -4,4"/>
<!-- Node1 -->
<g id="node1" class="node">
<title>Node1</title>
<g id="a_node1"><a xlink:title="Implementação de Flow para teste: crescimento logístico no target.">
<polygon fill="#bfbfbf" stroke="black" points="0,-0.5 0,-19.5 71,-19.5 71,-0.5 0,-0.5"/>
<text text-anchor="middle" x="35.5" y="-7.5" font-family="Helvetica,sans-Serif" font-size="10.00">LogisticFlow</text>
</a>
</g>
</g>
<!-- Node2 -->
<g id="node2" class="node">
<title>Node2</title>
<g id="a_node2"><a xlink:href="classFlow.html" target="_top" xlink:title="Classe base abstrata que define um fluxo entre dois Systems.">
<polygon fill="white" stroke="black" points="16.5,-57.5 16.5,-76.5 54.5,-76.5 54.5,-57.5 16.5,-57.5"/>
<text text-anchor="middle" x="35.5" y="-64.5" font-family="Helvetica,sans-Serif" font-size="10.00">Flow</text>
</a>
</g>
</g>
<!-- Node2&#45;&gt;Node1 -->
<g id="edge1" class="edge">
<title>Node2&#45;&gt;Node1</title>
<path fill="none" stroke="midnightblue" d="M35.5,-47.12C35.5,-37.82 35.5,-27.06 35.5,-19.71"/>
<polygon fill="midnightblue" stroke="midnightblue" points="32,-47.41 35.5,-57.41 39,-47.41 32,-47.41"/>
</g>
<!-- Node3 -->
<g id="node3" class="node">
<title>Node3</title>
<g id="a_node3"><a xlink:href="classSystem.html" target="_top" xlink:title="Representa um elemento de armazenamento dentro do modelo.">
<polygon fill="white" stroke="black" points="10.5,-135.5 10.5,-154.5 60.5,-154.5 60.5,-135.5 10.5,-135.5"/>
<text text-anchor="middle" x="35.5" y="-142.5" font-family="Helvetica,sans-Serif" font-size="10.00">System</text>
</a>
</g>
</g>
<!-- Node3&#45;&gt;Node2 -->
<g id="edge2" class="edge">
<title>Node3&#45;&gt;Node2</title>
<path fill="none" stroke="#9a32cd" stroke-dasharray="5,2" d="M35.5,-125.22C35.5,-109.7 35.5,-88.36 35.5,-76.62"/>
<polygon fill="#9a32cd" stroke="#9a32cd" points="32,-125.28 35.5,-135.28 39,-125.28 32,-125.28"/>
<text text-anchor="middle" x="52" y="-109" font-family="Helvetica,sans-Serif" font-size="10.00"> source</text>
<text text-anchor="middle" x="52" y="-98" font-family="Helvetica,sans-Serif" font-size="10.00">target</text>
</g>
</g>
</svg>
