<?xml version="1.0" encoding="UTF-8" standalone="no"?>
<!DOCTYPE svg PUBLIC "-//W3C//DTD SVG 1.1//EN"
 "http://www.w3.org/Graphics/SVG/1.1/DTD/svg11.dtd">
<!-- Generated by graphviz version 2.43.0 (0)
 -->
<!-- Title: LogisticFlow::execute Pages: 1 -->
<svg width="250pt" height="66pt"
 viewBox="0.00 0.00 250.00 66.00" xmlns="http://www.w3.org/2000/svg" xmlns:xlink="http://www.w3.org/1999/xlink">
<g id="graph0" class="graph" transform="scale(1 1) rotate(0) translate(4 62)">
<title>LogisticFlow::execute</title>
<polygon fill="white" stroke="transparent" points="-4,4 -4,-62 246,-62 246,4 -4,4"/>
<!-- Node1 -->
<g id="node1" class="node">
<title>Node1</title>
<g id="a_node1"><a xlink:title="Calcula o valor do fluxo (crescimento logístico baseado no target).">
<polygon fill="#bfbfbf" stroke="black" points="0,-19.5 0,-38.5 112,-38.5 112,-19.5 0,-19.5"/>
<text text-anchor="middle" x="56" y="-26.5" font-family="Helvetica,sans-Serif" font-size="10.00">LogisticFlow::execute</text>
</a>
</g>
</g>
<!-- Node2 -->
<g id="node2" class="node">
<title>Node2</title>
<g id="a_node2"><a xlink:href="classFlow.html#aff8a0f8ca8dc50d37c92ab7556e172b5" target="_top" xlink:title="Retorna o sistema de destino.">
<polygon fill="white" stroke="black" points="153,-38.5 153,-57.5 237,-57.5 237,-38.5 153,-38.5"/>
<text text-anchor="middle" x="195" y="-45.5" font-family="Helvetica,sans-Serif" font-size="10.00">Flow::getTarget</text>
</a>
</g>
</g>
<!-- Node1&#45;&gt;Node2 -->
<g id="edge1" class="edge">
<title>Node1&#45;&gt;Node2</title>
<path fill="none" stroke="midnightblue" d="M112.33,-36.67C122.36,-38.06 132.78,-39.51 142.69,-40.88"/>
<polygon fill="midnightblue" stroke="midnightblue" points="142.41,-44.38 152.8,-42.29 143.37,-37.44 142.41,-44.38"/>
</g>
<!-- Node3 -->
<g id="node3" class="node">
<title>Node3</title>
<g id="a_node3"><a xlink:href="classSystem.html#aa7d17369d1034e7d8643a63f69d1901d" target="_top" xlink:title="Obtém o valor atual armazenado.">
<polygon fill="white" stroke="black" points="148,-0.5 148,-19.5 242,-19.5 242,-0.5 148,-0.5"/>
<text text-anchor="middle" x="195" y="-7.5" font-family="Helvetica,sans-Serif" font-size="10.00">System::getValue</text>
</a>
</g>
</g>
<!-- Node1&#45;&gt;Node3 -->
<g id="edge2" class="edge">
<title>Node1&#45;&gt;Node3</title>
<path fill="none" stroke="midnightblue" d="M112.33,-21.33C120.67,-20.17 129.28,-18.98 137.65,-17.82"/>
<polygon fill="midnightblue" stroke="midnightblue" points="138.26,-21.26 147.69,-16.42 137.3,-14.33 138.26,-21.26"/>
</g>
</g>
</svg>
