<?xml version="1.0" encoding="UTF-8" standalone="no"?>
<!DOCTYPE svg PUBLIC "-//W3C//DTD SVG 1.1//EN"
 "http://www.w3.org/Graphics/SVG/1.1/DTD/svg11.dtd">
<!-- Generated by graphviz version 2.43.0 (0)
 -->
<!-- Title: ExponentialFlow::execute Pages: 1 -->
<svg width="267pt" height="66pt"
 viewBox="0.00 0.00 267.00 66.00" xmlns="http://www.w3.org/2000/svg" xmlns:xlink="http://www.w3.org/1999/xlink">
<g id="graph0" class="graph" transform="scale(1 1) rotate(0) translate(4 62)">
<title>ExponentialFlow::execute</title>
<polygon fill="white" stroke="transparent" points="-4,4 -4,-62 263,-62 263,4 -4,4"/>
<!-- Node1 -->
<g id="node1" class="node">
<title>Node1</title>
<g id="a_node1"><a xlink:title="Calcula o valor do fluxo (proporcional ao source).">
<polygon fill="#bfbfbf" stroke="black" points="0,-19.5 0,-38.5 129,-38.5 129,-19.5 0,-19.5"/>
<text text-anchor="middle" x="64.5" y="-26.5" font-family="Helvetica,sans-Serif" font-size="10.00">ExponentialFlow::execute</text>
</a>
</g>
</g>
<!-- Node2 -->
<g id="node2" class="node">
<title>Node2</title>
<g id="a_node2"><a xlink:href="classFlow.html#a1f3858f90d141807377c2640fb5dd0fc" target="_top" xlink:title="Retorna o sistema de origem.">
<polygon fill="white" stroke="black" points="168,-38.5 168,-57.5 256,-57.5 256,-38.5 168,-38.5"/>
<text text-anchor="middle" x="212" y="-45.5" font-family="Helvetica,sans-Serif" font-size="10.00">Flow::getSource</text>
</a>
</g>
</g>
<!-- Node1&#45;&gt;Node2 -->
<g id="edge1" class="edge">
<title>Node1&#45;&gt;Node2</title>
<path fill="none" stroke="midnightblue" d="M129.32,-37.33C138.75,-38.57 148.38,-39.82 157.57,-41.02"/>
<polygon fill="midnightblue" stroke="midnightblue" points="157.36,-44.53 167.73,-42.35 158.27,-37.58 157.36,-44.53"/>
</g>
<!-- Node3 -->
<g id="node3" class="node">
<title>Node3</title>
<g id="a_node3"><a xlink:href="classSystem.html#aa7d17369d1034e7d8643a63f69d1901d" target="_top" xlink:title="Obtém o valor atual armazenado.">
<polygon fill="white" stroke="black" points="165,-0.5 165,-19.5 259,-19.5 259,-0.5 165,-0.5"/>
<text text-anchor="middle" x="212" y="-7.5" font-family="Helvetica,sans-Serif" font-size="10.00">System::getValue</text>
</a>
</g>
</g>
<!-- Node1&#45;&gt;Node3 -->
<g id="edge2" class="edge">
<title>Node1&#45;&gt;Node3</title>
<path fill="none" stroke="midnightblue" d="M129.32,-20.67C137.79,-19.56 146.42,-18.43 154.75,-17.35"/>
<polygon fill="midnightblue" stroke="midnightblue" points="155.26,-20.81 164.72,-16.04 154.35,-13.87 155.26,-20.81"/>
</g>
</g>
</svg>
