<?xml version="1.0" encoding="UTF-8" standalone="no"?>
<!DOCTYPE svg PUBLIC "-//W3C//DTD SVG 1.1//EN"
 "http://www.w3.org/Graphics/SVG/1.1/DTD/svg11.dtd">
<!-- Generated by graphviz version 2.43.0 (0)
 -->
<!-- Title: Flow::getSource Pages: 1 -->
<svg width="498pt" height="180pt"
 viewBox="0.00 0.00 498.00 180.00" xmlns="http://www.w3.org/2000/svg" xmlns:xlink="http://www.w3.org/1999/xlink">
<g id="graph0" class="graph" transform="scale(1 1) rotate(0) translate(4 176)">
<title>Flow::getSource</title>
<polygon fill="white" stroke="transparent" points="-4,4 -4,-176 494,-176 494,4 -4,4"/>
<!-- Node1 -->
<g id="node1" class="node">
<title>Node1</title>
<g id="a_node1"><a xlink:title="Retorna o sistema de origem.">
<polygon fill="#bfbfbf" stroke="black" points="402,-95.5 402,-114.5 490,-114.5 490,-95.5 402,-95.5"/>
<text text-anchor="middle" x="446" y="-102.5" font-family="Helvetica,sans-Serif" font-size="10.00">Flow::getSource</text>
</a>
</g>
</g>
<!-- Node2 -->
<g id="node2" class="node">
<title>Node2</title>
<g id="a_node2"><a xlink:href="classExponentialFlow.html#a8ebb0c298d3bea1d30c48cd79f10ddb1" target="_top" xlink:title="Calcula o valor do fluxo (proporcional ao source).">
<polygon fill="white" stroke="black" points="237,-152.5 237,-171.5 366,-171.5 366,-152.5 237,-152.5"/>
<text text-anchor="middle" x="301.5" y="-159.5" font-family="Helvetica,sans-Serif" font-size="10.00">ExponentialFlow::execute</text>
</a>
</g>
</g>
<!-- Node1&#45;&gt;Node2 -->
<g id="edge1" class="edge">
<title>Node1&#45;&gt;Node2</title>
<path fill="none" stroke="midnightblue" d="M417.93,-119.33C402.89,-126.95 383.7,-136.15 366,-143 357.09,-146.45 347.29,-149.66 338.1,-152.42"/>
<polygon fill="midnightblue" stroke="midnightblue" points="419.87,-122.27 427.16,-114.58 416.67,-116.04 419.87,-122.27"/>
</g>
<!-- Node3 -->
<g id="node3" class="node">
<title>Node3</title>
<g id="a_node3"><a xlink:href="classFlow.html#a27af85e46a53aa5ff8c8016f012b0c24" target="_top" xlink:title="Construtor de cópia.">
<polygon fill="white" stroke="black" points="269,-114.5 269,-133.5 334,-133.5 334,-114.5 269,-114.5"/>
<text text-anchor="middle" x="301.5" y="-121.5" font-family="Helvetica,sans-Serif" font-size="10.00">Flow::Flow</text>
</a>
</g>
</g>
<!-- Node1&#45;&gt;Node3 -->
<g id="edge2" class="edge">
<title>Node1&#45;&gt;Node3</title>
<path fill="none" stroke="midnightblue" d="M391.91,-112.08C372.49,-114.67 351.14,-117.51 334.18,-119.78"/>
<polygon fill="midnightblue" stroke="midnightblue" points="392.41,-115.54 401.86,-110.75 391.48,-108.6 392.41,-115.54"/>
</g>
<!-- Node4 -->
<g id="node4" class="node">
<title>Node4</title>
<g id="a_node4"><a xlink:href="classFlow.html#a5f7550e37445bb6ae955beffd1fa857a" target="_top" xlink:title="Operador de atribuição.">
<polygon fill="white" stroke="black" points="259,-76.5 259,-95.5 344,-95.5 344,-76.5 259,-76.5"/>
<text text-anchor="middle" x="301.5" y="-83.5" font-family="Helvetica,sans-Serif" font-size="10.00">Flow::operator=</text>
</a>
</g>
</g>
<!-- Node1&#45;&gt;Node4 -->
<g id="edge3" class="edge">
<title>Node1&#45;&gt;Node4</title>
<path fill="none" stroke="midnightblue" d="M391.72,-97.9C375.95,-95.79 358.93,-93.52 344.03,-91.54"/>
<polygon fill="midnightblue" stroke="midnightblue" points="391.48,-101.4 401.86,-99.25 392.41,-94.46 391.48,-101.4"/>
</g>
<!-- Node5 -->
<g id="node5" class="node">
<title>Node5</title>
<g id="a_node5"><a xlink:href="classModel.html#ad31ab57899deb9e33c9fd0312553383c" target="_top" xlink:title="Executa a simulação completa.">
<polygon fill="white" stroke="black" points="270.5,-38.5 270.5,-57.5 332.5,-57.5 332.5,-38.5 270.5,-38.5"/>
<text text-anchor="middle" x="301.5" y="-45.5" font-family="Helvetica,sans-Serif" font-size="10.00">Model::run</text>
</a>
</g>
</g>
<!-- Node1&#45;&gt;Node5 -->
<g id="edge4" class="edge">
<title>Node1&#45;&gt;Node5</title>
<path fill="none" stroke="midnightblue" d="M417.93,-90.67C402.89,-83.05 383.7,-73.85 366,-67 355.27,-62.84 343.23,-59.04 332.55,-55.94"/>
<polygon fill="midnightblue" stroke="midnightblue" points="416.67,-93.96 427.16,-95.42 419.87,-87.73 416.67,-93.96"/>
</g>
<!-- Node6 -->
<g id="node6" class="node">
<title>Node6</title>
<g id="a_node6"><a xlink:href="funcional__tests_8cpp.html#a943dfe0c597a01c9760c140715fed527" target="_top" xlink:title="Teste funcional composto (cenário mais complexo).">
<polygon fill="white" stroke="black" points="80.5,-76.5 80.5,-95.5 194.5,-95.5 194.5,-76.5 80.5,-76.5"/>
<text text-anchor="middle" x="137.5" y="-83.5" font-family="Helvetica,sans-Serif" font-size="10.00">complexFuncionalTest</text>
</a>
</g>
</g>
<!-- Node5&#45;&gt;Node6 -->
<g id="edge5" class="edge">
<title>Node5&#45;&gt;Node6</title>
<path fill="none" stroke="midnightblue" d="M260.6,-57.36C235.81,-63.17 204.04,-70.63 179.12,-76.47"/>
<polygon fill="midnightblue" stroke="midnightblue" points="261.47,-60.75 270.41,-55.06 259.87,-53.93 261.47,-60.75"/>
</g>
<!-- Node8 -->
<g id="node8" class="node">
<title>Node8</title>
<g id="a_node8"><a xlink:href="funcional__tests_8cpp.html#a2c448ffaffdff4b03c825a01dffa6f27" target="_top" xlink:title="Teste funcional para verificar comportamento do fluxo exponencial.">
<polygon fill="white" stroke="black" points="74,-38.5 74,-57.5 201,-57.5 201,-38.5 74,-38.5"/>
<text text-anchor="middle" x="137.5" y="-45.5" font-family="Helvetica,sans-Serif" font-size="10.00">exponentialFuncionalTest</text>
</a>
</g>
</g>
<!-- Node5&#45;&gt;Node8 -->
<g id="edge7" class="edge">
<title>Node5&#45;&gt;Node8</title>
<path fill="none" stroke="midnightblue" d="M260.37,-48C242.55,-48 221.16,-48 201.31,-48"/>
<polygon fill="midnightblue" stroke="midnightblue" points="260.41,-51.5 270.41,-48 260.41,-44.5 260.41,-51.5"/>
</g>
<!-- Node9 -->
<g id="node9" class="node">
<title>Node9</title>
<g id="a_node9"><a xlink:href="funcional__tests_8cpp.html#a60914db64bde71b56d69320797266c29" target="_top" xlink:title="Teste funcional para verificar comportamento do fluxo logístico.">
<polygon fill="white" stroke="black" points="79.5,-0.5 79.5,-19.5 195.5,-19.5 195.5,-0.5 79.5,-0.5"/>
<text text-anchor="middle" x="137.5" y="-7.5" font-family="Helvetica,sans-Serif" font-size="10.00">logisticalFuncionalTest</text>
</a>
</g>
</g>
<!-- Node5&#45;&gt;Node9 -->
<g id="edge9" class="edge">
<title>Node5&#45;&gt;Node9</title>
<path fill="none" stroke="midnightblue" d="M260.6,-38.64C235.81,-32.83 204.04,-25.37 179.12,-19.53"/>
<polygon fill="midnightblue" stroke="midnightblue" points="259.87,-42.07 270.41,-40.94 261.47,-35.25 259.87,-42.07"/>
</g>
<!-- Node7 -->
<g id="node7" class="node">
<title>Node7</title>
<g id="a_node7"><a xlink:href="main_8cpp.html#a840291bc02cba5474a4cb46a9b9566fe" target="_top" xlink:title=" ">
<polygon fill="white" stroke="black" points="0,-38.5 0,-57.5 38,-57.5 38,-38.5 0,-38.5"/>
<text text-anchor="middle" x="19" y="-45.5" font-family="Helvetica,sans-Serif" font-size="10.00">main</text>
</a>
</g>
</g>
<!-- Node6&#45;&gt;Node7 -->
<g id="edge6" class="edge">
<title>Node6&#45;&gt;Node7</title>
<path fill="none" stroke="midnightblue" d="M94.22,-73.42C87.44,-71.32 80.52,-69.14 74,-67 62.1,-63.1 48.83,-58.44 38.43,-54.71"/>
<polygon fill="midnightblue" stroke="midnightblue" points="93.39,-76.82 103.98,-76.4 95.44,-70.13 93.39,-76.82"/>
</g>
<!-- Node8&#45;&gt;Node7 -->
<g id="edge8" class="edge">
<title>Node8&#45;&gt;Node7</title>
<path fill="none" stroke="midnightblue" d="M63.63,-48C54.38,-48 45.66,-48 38.48,-48"/>
<polygon fill="midnightblue" stroke="midnightblue" points="63.82,-51.5 73.82,-48 63.82,-44.5 63.82,-51.5"/>
</g>
<!-- Node9&#45;&gt;Node7 -->
<g id="edge10" class="edge">
<title>Node9&#45;&gt;Node7</title>
<path fill="none" stroke="midnightblue" d="M94.22,-22.58C87.44,-24.68 80.52,-26.86 74,-29 62.1,-32.9 48.83,-37.56 38.43,-41.29"/>
<polygon fill="midnightblue" stroke="midnightblue" points="95.44,-25.87 103.98,-19.6 93.39,-19.18 95.44,-25.87"/>
</g>
</g>
</svg>
