<?xml version="1.0" encoding="UTF-8" standalone="no"?>
<!DOCTYPE svg PUBLIC "-//W3C//DTD SVG 1.1//EN"
 "http://www.w3.org/Graphics/SVG/1.1/DTD/svg11.dtd">
<!-- Generated by graphviz version 2.43.0 (0)
 -->
<!-- Title: ExponentialFlow Pages: 1 -->
<svg width="97pt" height="163pt"
 viewBox="0.00 0.00 97.00 163.00" xmlns="http://www.w3.org/2000/svg" xmlns:xlink="http://www.w3.org/1999/xlink">
<g id="graph0" class="graph" transform="scale(1 1) rotate(0) translate(4 159)">
<title>ExponentialFlow</title>
<polygon fill="white" stroke="transparent" points="-4,4 -4,-159 93,-159 93,4 -4,4"/>
<!-- Node1 -->
<g id="node1" class="node">
<title>Node1</title>
<g id="a_node1"><a xlink:title="Implementação de Flow para teste: fluxo proporcional ao source.">
<polygon fill="#bfbfbf" stroke="black" points="0,-0.5 0,-19.5 89,-19.5 89,-0.5 0,-0.5"/>
<text text-anchor="middle" x="44.5" y="-7.5" font-family="Helvetica,sans-Serif" font-size="10.00">ExponentialFlow</text>
</a>
</g>
</g>
<!-- Node2 -->
<g id="node2" class="node">
<title>Node2</title>
<g id="a_node2"><a xlink:href="classFlow.html" target="_top" xlink:title="Classe base abstrata que define um fluxo entre dois Systems.">
<polygon fill="white" stroke="black" points="25.5,-57.5 25.5,-76.5 63.5,-76.5 63.5,-57.5 25.5,-57.5"/>
<text text-anchor="middle" x="44.5" y="-64.5" font-family="Helvetica,sans-Serif" font-size="10.00">Flow</text>
</a>
</g>
</g>
<!-- Node2&#45;&gt;Node1 -->
<g id="edge1" class="edge">
<title>Node2&#45;&gt;Node1</title>
<path fill="none" stroke="midnightblue" d="M44.5,-47.12C44.5,-37.82 44.5,-27.06 44.5,-19.71"/>
<polygon fill="midnightblue" stroke="midnightblue" points="41,-47.41 44.5,-57.41 48,-47.41 41,-47.41"/>
</g>
<!-- Node3 -->
<g id="node3" class="node">
<title>Node3</title>
<g id="a_node3"><a xlink:href="classSystem.html" target="_top" xlink:title="Representa um elemento de armazenamento dentro do modelo.">
<polygon fill="white" stroke="black" points="19.5,-135.5 19.5,-154.5 69.5,-154.5 69.5,-135.5 19.5,-135.5"/>
<text text-anchor="middle" x="44.5" y="-142.5" font-family="Helvetica,sans-Serif" font-size="10.00">System</text>
</a>
</g>
</g>
<!-- Node3&#45;&gt;Node2 -->
<g id="edge2" class="edge">
<title>Node3&#45;&gt;Node2</title>
<path fill="none" stroke="#9a32cd" stroke-dasharray="5,2" d="M44.5,-125.22C44.5,-109.7 44.5,-88.36 44.5,-76.62"/>
<polygon fill="#9a32cd" stroke="#9a32cd" points="41,-125.28 44.5,-135.28 48,-125.28 41,-125.28"/>
<text text-anchor="middle" x="61" y="-109" font-family="Helvetica,sans-Serif" font-size="10.00"> source</text>
<text text-anchor="middle" x="61" y="-98" font-family="Helvetica,sans-Serif" font-size="10.00">target</text>
</g>
</g>
</svg>
