<?xml version="1.0" encoding="UTF-8" standalone="no"?>
<!DOCTYPE svg PUBLIC "-//W3C//DTD SVG 1.1//EN"
 "http://www.w3.org/Graphics/SVG/1.1/DTD/svg11.dtd">
<!-- Generated by graphviz version 2.43.0 (0)
 -->
<!-- Title: Flow::operator= Pages: 1 -->
<svg width="217pt" height="66pt"
 viewBox="0.00 0.00 217.00 66.00" xmlns="http://www.w3.org/2000/svg" xmlns:xlink="http://www.w3.org/1999/xlink">
<g id="graph0" class="graph" transform="scale(1 1) rotate(0) translate(4 62)">
<title>Flow::operator=</title>
<polygon fill="white" stroke="transparent" points="-4,4 -4,-62 213,-62 213,4 -4,4"/>
<!-- Node1 -->
<g id="node1" class="node">
<title>Node1</title>
<g id="a_node1"><a xlink:title="Operador de atribuição.">
<polygon fill="#bfbfbf" stroke="black" points="0,-19.5 0,-38.5 85,-38.5 85,-19.5 0,-19.5"/>
<text text-anchor="middle" x="42.5" y="-26.5" font-family="Helvetica,sans-Serif" font-size="10.00">Flow::operator=</text>
</a>
</g>
</g>
<!-- Node2 -->
<g id="node2" class="node">
<title>Node2</title>
<g id="a_node2"><a xlink:href="classFlow.html#a1f3858f90d141807377c2640fb5dd0fc" target="_top" xlink:title="Retorna o sistema de origem.">
<polygon fill="white" stroke="black" points="121,-38.5 121,-57.5 209,-57.5 209,-38.5 121,-38.5"/>
<text text-anchor="middle" x="165" y="-45.5" font-family="Helvetica,sans-Serif" font-size="10.00">Flow::getSource</text>
</a>
</g>
</g>
<!-- Node1&#45;&gt;Node2 -->
<g id="edge1" class="edge">
<title>Node1&#45;&gt;Node2</title>
<path fill="none" stroke="midnightblue" d="M85.31,-35.59C93.43,-36.87 102.04,-38.23 110.47,-39.56"/>
<polygon fill="midnightblue" stroke="midnightblue" points="110.21,-43.06 120.63,-41.16 111.3,-36.15 110.21,-43.06"/>
</g>
<!-- Node3 -->
<g id="node3" class="node">
<title>Node3</title>
<g id="a_node3"><a xlink:href="classFlow.html#aff8a0f8ca8dc50d37c92ab7556e172b5" target="_top" xlink:title="Retorna o sistema de destino.">
<polygon fill="white" stroke="black" points="123,-0.5 123,-19.5 207,-19.5 207,-0.5 123,-0.5"/>
<text text-anchor="middle" x="165" y="-7.5" font-family="Helvetica,sans-Serif" font-size="10.00">Flow::getTarget</text>
</a>
</g>
</g>
<!-- Node1&#45;&gt;Node3 -->
<g id="edge2" class="edge">
<title>Node1&#45;&gt;Node3</title>
<path fill="none" stroke="midnightblue" d="M85.31,-22.41C94.1,-21.02 103.47,-19.54 112.57,-18.11"/>
<polygon fill="midnightblue" stroke="midnightblue" points="113.34,-21.53 122.67,-16.52 112.25,-14.62 113.34,-21.53"/>
</g>
</g>
</svg>
