<?xml version="1.0" encoding="UTF-8" standalone="no"?>
<!DOCTYPE svg PUBLIC "-//W3C//DTD SVG 1.1//EN"
 "http://www.w3.org/Graphics/SVG/1.1/DTD/svg11.dtd">
<!-- Generated by graphviz version 2.43.0 (0)
 -->
<!-- Title: src/Flow.h Pages: 1 -->
<svg width="328pt" height="218pt"
 viewBox="0.00 0.00 328.00 218.00" xmlns="http://www.w3.org/2000/svg" xmlns:xlink="http://www.w3.org/1999/xlink">
<g id="graph0" class="graph" transform="scale(1 1) rotate(0) translate(4 214)">
<title>src/Flow.h</title>
<polygon fill="white" stroke="transparent" points="-4,4 -4,-214 324,-214 324,4 -4,4"/>
<!-- Node1 -->
<g id="node1" class="node">
<title>Node1</title>
<g id="a_node1"><a xlink:title="Declaração da classe abstrata Flow, que modela um fluxo entre dois Systems.">
<polygon fill="#bfbfbf" stroke="black" points="155.5,-190.5 155.5,-209.5 216.5,-209.5 216.5,-190.5 155.5,-190.5"/>
<text text-anchor="middle" x="186" y="-197.5" font-family="Helvetica,sans-Serif" font-size="10.00">src/Flow.h</text>
</a>
</g>
</g>
<!-- Node2 -->
<g id="node2" class="node">
<title>Node2</title>
<g id="a_node2"><a xlink:href="Flow_8cpp.html" target="_top" xlink:title="Implementação da classe Flow.">
<polygon fill="white" stroke="black" points="62.5,-134.5 62.5,-153.5 133.5,-153.5 133.5,-134.5 62.5,-134.5"/>
<text text-anchor="middle" x="98" y="-141.5" font-family="Helvetica,sans-Serif" font-size="10.00">src/Flow.cpp</text>
</a>
</g>
</g>
<!-- Node1&#45;&gt;Node2 -->
<g id="edge1" class="edge">
<title>Node1&#45;&gt;Node2</title>
<path fill="none" stroke="midnightblue" d="M163.02,-184.9C146.89,-175 125.82,-162.07 112.1,-153.65"/>
<polygon fill="midnightblue" stroke="midnightblue" points="161.51,-188.08 171.86,-190.32 165.17,-182.11 161.51,-188.08"/>
</g>
<!-- Node3 -->
<g id="node3" class="node">
<title>Node3</title>
<g id="a_node3"><a xlink:href="Model_8h.html" target="_top" xlink:title="Declaração da classe Model, responsável pelo gerenciamento da simulação.">
<polygon fill="white" stroke="black" points="152,-134.5 152,-153.5 220,-153.5 220,-134.5 152,-134.5"/>
<text text-anchor="middle" x="186" y="-141.5" font-family="Helvetica,sans-Serif" font-size="10.00">src/Model.h</text>
</a>
</g>
</g>
<!-- Node1&#45;&gt;Node3 -->
<g id="edge2" class="edge">
<title>Node1&#45;&gt;Node3</title>
<path fill="none" stroke="midnightblue" d="M186,-179.8C186,-170.91 186,-160.78 186,-153.75"/>
<polygon fill="midnightblue" stroke="midnightblue" points="182.5,-180.08 186,-190.08 189.5,-180.08 182.5,-180.08"/>
</g>
<!-- Node7 -->
<g id="node7" class="node">
<title>Node7</title>
<g id="a_node7"><a xlink:href="main_8cpp.html" target="_top" xlink:title="Arquivo principal responsável por executar os testes funcionais do simulador.">
<polygon fill="white" stroke="black" points="202,-6 202,-25 320,-25 320,-6 202,-6"/>
<text text-anchor="middle" x="261" y="-13" font-family="Helvetica,sans-Serif" font-size="10.00">test/funcional/main.cpp</text>
</a>
</g>
</g>
<!-- Node1&#45;&gt;Node7 -->
<g id="edge8" class="edge">
<title>Node1&#45;&gt;Node7</title>
<path fill="none" stroke="midnightblue" d="M204.44,-183.56C212.99,-175.53 222.65,-165.08 229,-154 254.11,-110.2 259.53,-47.85 260.69,-25.17"/>
<polygon fill="midnightblue" stroke="midnightblue" points="201.84,-181.18 196.72,-190.46 206.51,-186.4 201.84,-181.18"/>
</g>
<!-- Node4 -->
<g id="node4" class="node">
<title>Node4</title>
<g id="a_node4"><a xlink:href="Model_8cpp.html" target="_top" xlink:title="Implementação da classe Model.">
<polygon fill="white" stroke="black" points="0,-73 0,-92 78,-92 78,-73 0,-73"/>
<text text-anchor="middle" x="39" y="-80" font-family="Helvetica,sans-Serif" font-size="10.00">src/Model.cpp</text>
</a>
</g>
</g>
<!-- Node3&#45;&gt;Node4 -->
<g id="edge3" class="edge">
<title>Node3&#45;&gt;Node4</title>
<path fill="none" stroke="midnightblue" d="M155.44,-130.63C126.88,-119.07 85,-102.12 60.02,-92.01"/>
<polygon fill="midnightblue" stroke="midnightblue" points="154.36,-133.97 164.94,-134.48 156.98,-127.48 154.36,-133.97"/>
</g>
<!-- Node5 -->
<g id="node5" class="node">
<title>Node5</title>
<g id="a_node5"><a xlink:href="funcional__tests_8h.html" target="_top" xlink:title="Declaração de fluxos de teste e protótipos de testes funcionais.">
<polygon fill="white" stroke="black" points="96.5,-67.5 96.5,-97.5 213.5,-97.5 213.5,-67.5 96.5,-67.5"/>
<text text-anchor="start" x="104.5" y="-85.5" font-family="Helvetica,sans-Serif" font-size="10.00">test/funcional/funcional</text>
<text text-anchor="middle" x="155" y="-74.5" font-family="Helvetica,sans-Serif" font-size="10.00">_tests.h</text>
</a>
</g>
</g>
<!-- Node3&#45;&gt;Node5 -->
<g id="edge4" class="edge">
<title>Node3&#45;&gt;Node5</title>
<path fill="none" stroke="midnightblue" d="M176.83,-125.39C172.19,-116.5 166.65,-105.86 162.31,-97.52"/>
<polygon fill="midnightblue" stroke="midnightblue" points="173.83,-127.22 181.56,-134.48 180.04,-123.99 173.83,-127.22"/>
</g>
<!-- Node3&#45;&gt;Node7 -->
<g id="edge7" class="edge">
<title>Node3&#45;&gt;Node7</title>
<path fill="none" stroke="midnightblue" d="M201.25,-126.52C208.38,-118.32 216.68,-108.03 223,-98 238.65,-73.17 251.81,-40.85 257.69,-25.44"/>
<polygon fill="midnightblue" stroke="midnightblue" points="198.43,-124.42 194.37,-134.21 203.65,-129.09 198.43,-124.42"/>
</g>
<!-- Node6 -->
<g id="node6" class="node">
<title>Node6</title>
<g id="a_node6"><a xlink:href="funcional__tests_8cpp.html" target="_top" xlink:title="Implementação dos testes funcionais do simulador de sistemas.">
<polygon fill="white" stroke="black" points="66.5,-0.5 66.5,-30.5 183.5,-30.5 183.5,-0.5 66.5,-0.5"/>
<text text-anchor="start" x="74.5" y="-18.5" font-family="Helvetica,sans-Serif" font-size="10.00">test/funcional/funcional</text>
<text text-anchor="middle" x="125" y="-7.5" font-family="Helvetica,sans-Serif" font-size="10.00">_tests.cpp</text>
</a>
</g>
</g>
<!-- Node5&#45;&gt;Node6 -->
<g id="edge5" class="edge">
<title>Node5&#45;&gt;Node6</title>
<path fill="none" stroke="midnightblue" d="M144.28,-58.28C140.01,-49.02 135.23,-38.66 131.5,-30.58"/>
<polygon fill="midnightblue" stroke="midnightblue" points="141.12,-59.78 148.49,-67.4 147.48,-56.85 141.12,-59.78"/>
</g>
<!-- Node5&#45;&gt;Node7 -->
<g id="edge6" class="edge">
<title>Node5&#45;&gt;Node7</title>
<path fill="none" stroke="midnightblue" d="M186.57,-62.14C206.72,-49.79 231.83,-34.39 247.13,-25.01"/>
<polygon fill="midnightblue" stroke="midnightblue" points="184.7,-59.18 178,-67.4 188.35,-65.15 184.7,-59.18"/>
</g>
</g>
</svg>
