<?xml version="1.0" encoding="UTF-8" standalone="no"?>
<!DOCTYPE svg PUBLIC "-//W3C//DTD SVG 1.1//EN"
 "http://www.w3.org/Graphics/SVG/1.1/DTD/svg11.dtd">
<!-- Generated by graphviz version 2.43.0 (0)
 -->
<!-- Title: src/Flow.cpp Pages: 1 -->
<svg width="91pt" height="140pt"
 viewBox="0.00 0.00 90.50 140.00" xmlns="http://www.w3.org/2000/svg" xmlns:xlink="http://www.w3.org/1999/xlink">
<g id="graph0" class="graph" transform="scale(1 1) rotate(0) translate(4 136)">
<title>src/Flow.cpp</title>
<polygon fill="white" stroke="transparent" points="-4,4 -4,-136 86.5,-136 86.5,4 -4,4"/>
<!-- Node1 -->
<g id="node1" class="node">
<title>Node1</title>
<g id="a_node1"><a xlink:title="Implementação da classe Flow.">
<polygon fill="#bfbfbf" stroke="black" points="11.5,-112.5 11.5,-131.5 82.5,-131.5 82.5,-112.5 11.5,-112.5"/>
<text text-anchor="middle" x="47" y="-119.5" font-family="Helvetica,sans-Serif" font-size="10.00">src/Flow.cpp</text>
</a>
</g>
</g>
<!-- Node2 -->
<g id="node2" class="node">
<title>Node2</title>
<g id="a_node2"><a xlink:href="Flow_8h.html" target="_top" xlink:title="Declaração da classe abstrata Flow, que modela um fluxo entre dois Systems.">
<polygon fill="white" stroke="black" points="0,-56.5 0,-75.5 44,-75.5 44,-56.5 0,-56.5"/>
<text text-anchor="middle" x="22" y="-63.5" font-family="Helvetica,sans-Serif" font-size="10.00">Flow.h</text>
</a>
</g>
</g>
<!-- Node1&#45;&gt;Node2 -->
<g id="edge1" class="edge">
<title>Node1&#45;&gt;Node2</title>
<path fill="none" stroke="midnightblue" d="M42.87,-112.08C39.49,-104.77 34.58,-94.18 30.38,-85.1"/>
<polygon fill="midnightblue" stroke="midnightblue" points="33.43,-83.36 26.05,-75.75 27.08,-86.3 33.43,-83.36"/>
</g>
<!-- Node3 -->
<g id="node3" class="node">
<title>Node3</title>
<g id="a_node3"><a xlink:href="System_8h.html" target="_top" xlink:title="Declaração da classe System, que representa um elemento básico do modelo.">
<polygon fill="white" stroke="black" points="17.5,-0.5 17.5,-19.5 76.5,-19.5 76.5,-0.5 17.5,-0.5"/>
<text text-anchor="middle" x="47" y="-7.5" font-family="Helvetica,sans-Serif" font-size="10.00">System.h</text>
</a>
</g>
</g>
<!-- Node1&#45;&gt;Node3 -->
<g id="edge3" class="edge">
<title>Node1&#45;&gt;Node3</title>
<path fill="none" stroke="midnightblue" d="M48.49,-112.41C49.98,-103.38 52.15,-88.74 53,-76 54.03,-60.43 52.22,-42.81 50.32,-29.85"/>
<polygon fill="midnightblue" stroke="midnightblue" points="53.75,-29.13 48.7,-19.82 46.84,-30.25 53.75,-29.13"/>
</g>
<!-- Node2&#45;&gt;Node3 -->
<g id="edge2" class="edge">
<title>Node2&#45;&gt;Node3</title>
<path fill="none" stroke="midnightblue" d="M26.13,-56.08C29.51,-48.77 34.42,-38.18 38.62,-29.1"/>
<polygon fill="midnightblue" stroke="midnightblue" points="41.92,-30.3 42.95,-19.75 35.57,-27.36 41.92,-30.3"/>
</g>
</g>
</svg>
