<?xml version="1.0" encoding="UTF-8" standalone="no"?>
<!DOCTYPE svg PUBLIC "-//W3C//DTD SVG 1.1//EN"
 "http://www.w3.org/Graphics/SVG/1.1/DTD/svg11.dtd">
<!-- Generated by graphviz version 2.43.0 (0)
 -->
<!-- Title: Graphical Class Hierarchy Pages: 1 -->
<svg width="171pt" height="66pt"
 viewBox="0.00 0.00 171.00 66.00" xmlns="http://www.w3.org/2000/svg" xmlns:xlink="http://www.w3.org/1999/xlink">
<g id="graph0" class="graph" transform="scale(1 1) rotate(0) translate(4 62)">
<title>Graphical Class Hierarchy</title>
<polygon fill="white" stroke="transparent" points="-4,4 -4,-62 167,-62 167,4 -4,4"/>
<!-- Node0 -->
<g id="node1" class="node">
<title>Node0</title>
<g id="a_node1"><a xlink:href="classFlow.html" target="_top" xlink:title="Classe base abstrata que define um fluxo entre dois Systems.">
<polygon fill="white" stroke="black" points="0,-19.5 0,-38.5 38,-38.5 38,-19.5 0,-19.5"/>
<text text-anchor="middle" x="19" y="-26.5" font-family="Helvetica,sans-Serif" font-size="10.00">Flow</text>
</a>
</g>
</g>
<!-- Node1 -->
<g id="node2" class="node">
<title>Node1</title>
<g id="a_node2"><a xlink:href="classExponentialFlow.html" target="_top" xlink:title="Implementação de Flow para teste: fluxo proporcional ao source.">
<polygon fill="white" stroke="black" points="74,-38.5 74,-57.5 163,-57.5 163,-38.5 74,-38.5"/>
<text text-anchor="middle" x="118.5" y="-45.5" font-family="Helvetica,sans-Serif" font-size="10.00">ExponentialFlow</text>
</a>
</g>
</g>
<!-- Node0&#45;&gt;Node1 -->
<g id="edge1" class="edge">
<title>Node0&#45;&gt;Node1</title>
<path fill="none" stroke="midnightblue" d="M48.22,-34.5C56.2,-36.05 65.08,-37.79 73.75,-39.47"/>
<polygon fill="midnightblue" stroke="midnightblue" points="48.82,-31.05 38.34,-32.57 47.48,-37.92 48.82,-31.05"/>
</g>
<!-- Node2 -->
<g id="node3" class="node">
<title>Node2</title>
<g id="a_node3"><a xlink:href="classLogisticFlow.html" target="_top" xlink:title="Implementação de Flow para teste: crescimento logístico no target.">
<polygon fill="white" stroke="black" points="83,-0.5 83,-19.5 154,-19.5 154,-0.5 83,-0.5"/>
<text text-anchor="middle" x="118.5" y="-7.5" font-family="Helvetica,sans-Serif" font-size="10.00">LogisticFlow</text>
</a>
</g>
</g>
<!-- Node0&#45;&gt;Node2 -->
<g id="edge2" class="edge">
<title>Node0&#45;&gt;Node2</title>
<path fill="none" stroke="midnightblue" d="M48.42,-23.46C59.13,-21.37 71.43,-18.98 82.66,-16.79"/>
<polygon fill="midnightblue" stroke="midnightblue" points="47.48,-20.08 38.34,-25.43 48.82,-26.95 47.48,-20.08"/>
</g>
</g>
</svg>
