<?xml version="1.0" encoding="UTF-8" standalone="no"?>
<!DOCTYPE svg PUBLIC "-//W3C//DTD SVG 1.1//EN"
 "http://www.w3.org/Graphics/SVG/1.1/DTD/svg11.dtd">
<!-- Generated by graphviz version 2.43.0 (0)
 -->
<!-- Title: main Pages: 1 -->
<svg width="463pt" height="270pt"
 viewBox="0.00 0.00 463.00 269.73" xmlns="http://www.w3.org/2000/svg" xmlns:xlink="http://www.w3.org/1999/xlink">
<g id="graph0" class="graph" transform="scale(1 1) rotate(0) translate(4 265.73)">
<title>main</title>
<polygon fill="white" stroke="transparent" points="-4,4 -4,-265.73 459,-265.73 459,4 -4,4"/>
<!-- Node1 -->
<g id="node1" class="node">
<title>Node1</title>
<g id="a_node1"><a xlink:title=" ">
<polygon fill="#bfbfbf" stroke="black" points="0,-133.5 0,-152.5 38,-152.5 38,-133.5 0,-133.5"/>
<text text-anchor="middle" x="19" y="-140.5" font-family="Helvetica,sans-Serif" font-size="10.00">main</text>
</a>
</g>
</g>
<!-- Node2 -->
<g id="node2" class="node">
<title>Node2</title>
<g id="a_node2"><a xlink:href="funcional__tests_8cpp.html#a943dfe0c597a01c9760c140715fed527" target="_top" xlink:title="Teste funcional composto (cenário mais complexo).">
<polygon fill="white" stroke="black" points="80.5,-171.5 80.5,-190.5 194.5,-190.5 194.5,-171.5 80.5,-171.5"/>
<text text-anchor="middle" x="137.5" y="-178.5" font-family="Helvetica,sans-Serif" font-size="10.00">complexFuncionalTest</text>
</a>
</g>
</g>
<!-- Node1&#45;&gt;Node2 -->
<g id="edge1" class="edge">
<title>Node1&#45;&gt;Node2</title>
<path fill="none" stroke="midnightblue" d="M38.43,-149.71C48.83,-153.44 62.1,-158.1 74,-162 80.52,-164.14 87.44,-166.32 94.22,-168.42"/>
<polygon fill="midnightblue" stroke="midnightblue" points="93.39,-171.82 103.98,-171.4 95.44,-165.13 93.39,-171.82"/>
</g>
<!-- Node11 -->
<g id="node11" class="node">
<title>Node11</title>
<g id="a_node11"><a xlink:href="funcional__tests_8cpp.html#a2c448ffaffdff4b03c825a01dffa6f27" target="_top" xlink:title="Teste funcional para verificar comportamento do fluxo exponencial.">
<polygon fill="white" stroke="black" points="74,-95.5 74,-114.5 201,-114.5 201,-95.5 74,-95.5"/>
<text text-anchor="middle" x="137.5" y="-102.5" font-family="Helvetica,sans-Serif" font-size="10.00">exponentialFuncionalTest</text>
</a>
</g>
</g>
<!-- Node1&#45;&gt;Node11 -->
<g id="edge11" class="edge">
<title>Node1&#45;&gt;Node11</title>
<path fill="none" stroke="midnightblue" d="M38.43,-136.29C48.83,-132.56 62.1,-127.9 74,-124 80.52,-121.86 87.44,-119.68 94.22,-117.58"/>
<polygon fill="midnightblue" stroke="midnightblue" points="95.44,-120.87 103.98,-114.6 93.39,-114.18 95.44,-120.87"/>
</g>
<!-- Node12 -->
<g id="node12" class="node">
<title>Node12</title>
<g id="a_node12"><a xlink:href="funcional__tests_8cpp.html#a60914db64bde71b56d69320797266c29" target="_top" xlink:title="Teste funcional para verificar comportamento do fluxo logístico.">
<polygon fill="white" stroke="black" points="79.5,-133.5 79.5,-152.5 195.5,-152.5 195.5,-133.5 79.5,-133.5"/>
<text text-anchor="middle" x="137.5" y="-140.5" font-family="Helvetica,sans-Serif" font-size="10.00">logisticalFuncionalTest</text>
</a>
</g>
</g>
<!-- Node1&#45;&gt;Node12 -->
<g id="edge18" class="edge">
<title>Node1&#45;&gt;Node12</title>
<path fill="none" stroke="midnightblue" d="M38.2,-143C46.86,-143 57.82,-143 69.24,-143"/>
<polygon fill="midnightblue" stroke="midnightblue" points="69.36,-146.5 79.36,-143 69.36,-139.5 69.36,-146.5"/>
</g>
<!-- Node3 -->
<g id="node3" class="node">
<title>Node3</title>
<g id="a_node3"><a xlink:href="classModel.html#a2a340ed8a558aedcfbf7c1bdaff90c56" target="_top" xlink:title="Adiciona um novo sistema ao modelo.">
<polygon fill="white" stroke="black" points="248.5,-152.5 248.5,-171.5 313.5,-171.5 313.5,-152.5 248.5,-152.5"/>
<text text-anchor="middle" x="281" y="-159.5" font-family="Helvetica,sans-Serif" font-size="10.00">Model::add</text>
</a>
</g>
</g>
<!-- Node2&#45;&gt;Node3 -->
<g id="edge2" class="edge">
<title>Node2&#45;&gt;Node3</title>
<path fill="none" stroke="midnightblue" d="M194.83,-173.44C209.33,-171.49 224.66,-169.43 238.27,-167.6"/>
<polygon fill="midnightblue" stroke="midnightblue" points="238.85,-171.06 248.29,-166.26 237.91,-164.12 238.85,-171.06"/>
</g>
<!-- Node4 -->
<g id="node4" class="node">
<title>Node4</title>
<g id="a_node4"><a xlink:href="classSystem.html#aa7d17369d1034e7d8643a63f69d1901d" target="_top" xlink:title="Obtém o valor atual armazenado.">
<polygon fill="white" stroke="black" points="361,-171.5 361,-190.5 455,-190.5 455,-171.5 361,-171.5"/>
<text text-anchor="middle" x="408" y="-178.5" font-family="Helvetica,sans-Serif" font-size="10.00">System::getValue</text>
</a>
</g>
</g>
<!-- Node2&#45;&gt;Node4 -->
<g id="edge3" class="edge">
<title>Node2&#45;&gt;Node4</title>
<path fill="none" stroke="midnightblue" d="M147.42,-190.53C163.47,-206.89 199.09,-239.76 237,-252 274.22,-264.02 288.35,-265.66 325,-252 353.51,-241.37 378.69,-215.88 393.39,-198.52"/>
<polygon fill="midnightblue" stroke="midnightblue" points="396.12,-200.71 399.74,-190.75 390.7,-196.28 396.12,-200.71"/>
</g>
<!-- Node5 -->
<g id="node5" class="node">
<title>Node5</title>
<g id="a_node5"><a xlink:href="classModel.html#ad31ab57899deb9e33c9fd0312553383c" target="_top" xlink:title="Executa a simulação completa.">
<polygon fill="white" stroke="black" points="250,-38.5 250,-57.5 312,-57.5 312,-38.5 250,-38.5"/>
<text text-anchor="middle" x="281" y="-45.5" font-family="Helvetica,sans-Serif" font-size="10.00">Model::run</text>
</a>
</g>
</g>
<!-- Node2&#45;&gt;Node5 -->
<g id="edge4" class="edge">
<title>Node2&#45;&gt;Node5</title>
<path fill="none" stroke="midnightblue" d="M184.09,-171.38C190.12,-168.92 195.95,-165.85 201,-162 224.83,-143.84 219.96,-129.65 237,-105 246.34,-91.48 257.54,-76.68 266.17,-65.55"/>
<polygon fill="midnightblue" stroke="midnightblue" points="269.05,-67.54 272.45,-57.5 263.53,-63.23 269.05,-67.54"/>
</g>
<!-- Node9 -->
<g id="node9" class="node">
<title>Node9</title>
<g id="a_node9"><a xlink:href="classFlow.html#adf0c62a2efb7f4733e4c289bfb3d1dc3" target="_top" xlink:title="Define o sistema de origem do fluxo.">
<polygon fill="white" stroke="black" points="237,-114.5 237,-133.5 325,-133.5 325,-114.5 237,-114.5"/>
<text text-anchor="middle" x="281" y="-121.5" font-family="Helvetica,sans-Serif" font-size="10.00">Flow::setSource</text>
</a>
</g>
</g>
<!-- Node2&#45;&gt;Node9 -->
<g id="edge9" class="edge">
<title>Node2&#45;&gt;Node9</title>
<path fill="none" stroke="midnightblue" d="M174.28,-171.4C183.13,-168.68 192.5,-165.5 201,-162 217.73,-155.12 220.72,-150.88 237,-143 240.62,-141.25 244.43,-139.47 248.23,-137.74"/>
<polygon fill="midnightblue" stroke="midnightblue" points="249.85,-140.85 257.55,-133.57 246.99,-134.46 249.85,-140.85"/>
</g>
<!-- Node10 -->
<g id="node10" class="node">
<title>Node10</title>
<g id="a_node10"><a xlink:href="classFlow.html#ac325afb7bff8a1b67618a1aa088618ee" target="_top" xlink:title="Define o sistema de destino do fluxo.">
<polygon fill="white" stroke="black" points="239,-190.5 239,-209.5 323,-209.5 323,-190.5 239,-190.5"/>
<text text-anchor="middle" x="281" y="-197.5" font-family="Helvetica,sans-Serif" font-size="10.00">Flow::setTarget</text>
</a>
</g>
</g>
<!-- Node2&#45;&gt;Node10 -->
<g id="edge10" class="edge">
<title>Node2&#45;&gt;Node10</title>
<path fill="none" stroke="midnightblue" d="M194.83,-188.56C205.93,-190.05 217.52,-191.61 228.45,-193.08"/>
<polygon fill="midnightblue" stroke="midnightblue" points="228.31,-196.59 238.69,-194.45 229.24,-189.65 228.31,-196.59"/>
</g>
<!-- Node5&#45;&gt;Node4 -->
<g id="edge7" class="edge">
<title>Node5&#45;&gt;Node4</title>
<path fill="none" stroke="midnightblue" d="M303.27,-57.61C310.59,-61.49 318.56,-66.38 325,-72 355.91,-98.97 382.54,-139.36 396.53,-162.65"/>
<polygon fill="midnightblue" stroke="midnightblue" points="393.64,-164.65 401.72,-171.5 399.67,-161.1 393.64,-164.65"/>
</g>
<!-- Node6 -->
<g id="node6" class="node">
<title>Node6</title>
<g id="a_node6"><a xlink:href="classFlow.html#a1f3858f90d141807377c2640fb5dd0fc" target="_top" xlink:title="Retorna o sistema de origem.">
<polygon fill="white" stroke="black" points="364,-38.5 364,-57.5 452,-57.5 452,-38.5 364,-38.5"/>
<text text-anchor="middle" x="408" y="-45.5" font-family="Helvetica,sans-Serif" font-size="10.00">Flow::getSource</text>
</a>
</g>
</g>
<!-- Node5&#45;&gt;Node6 -->
<g id="edge5" class="edge">
<title>Node5&#45;&gt;Node6</title>
<path fill="none" stroke="midnightblue" d="M312.26,-48C324.7,-48 339.49,-48 353.64,-48"/>
<polygon fill="midnightblue" stroke="midnightblue" points="353.79,-51.5 363.79,-48 353.79,-44.5 353.79,-51.5"/>
</g>
<!-- Node7 -->
<g id="node7" class="node">
<title>Node7</title>
<g id="a_node7"><a xlink:href="classFlow.html#aff8a0f8ca8dc50d37c92ab7556e172b5" target="_top" xlink:title="Retorna o sistema de destino.">
<polygon fill="white" stroke="black" points="366,-76.5 366,-95.5 450,-95.5 450,-76.5 366,-76.5"/>
<text text-anchor="middle" x="408" y="-83.5" font-family="Helvetica,sans-Serif" font-size="10.00">Flow::getTarget</text>
</a>
</g>
</g>
<!-- Node5&#45;&gt;Node7 -->
<g id="edge6" class="edge">
<title>Node5&#45;&gt;Node7</title>
<path fill="none" stroke="midnightblue" d="M312.26,-57.2C328.33,-62.08 348.31,-68.16 365.77,-73.47"/>
<polygon fill="midnightblue" stroke="midnightblue" points="365.13,-76.93 375.71,-76.49 367.16,-70.23 365.13,-76.93"/>
</g>
<!-- Node8 -->
<g id="node8" class="node">
<title>Node8</title>
<g id="a_node8"><a xlink:href="classSystem.html#aa3dee10a22a9f908a87f84917857d2f0" target="_top" xlink:title="Define um novo valor para o sistema.">
<polygon fill="white" stroke="black" points="361,-0.5 361,-19.5 455,-19.5 455,-0.5 361,-0.5"/>
<text text-anchor="middle" x="408" y="-7.5" font-family="Helvetica,sans-Serif" font-size="10.00">System::setValue</text>
</a>
</g>
</g>
<!-- Node5&#45;&gt;Node8 -->
<g id="edge8" class="edge">
<title>Node5&#45;&gt;Node8</title>
<path fill="none" stroke="midnightblue" d="M312.26,-38.8C328.33,-33.92 348.31,-27.84 365.77,-22.53"/>
<polygon fill="midnightblue" stroke="midnightblue" points="367.16,-25.77 375.71,-19.51 365.13,-19.07 367.16,-25.77"/>
</g>
<!-- Node11&#45;&gt;Node3 -->
<g id="edge12" class="edge">
<title>Node11&#45;&gt;Node3</title>
<path fill="none" stroke="midnightblue" d="M174.28,-114.6C183.13,-117.32 192.5,-120.5 201,-124 217.73,-130.88 220.72,-135.12 237,-143 240.62,-144.75 244.43,-146.53 248.23,-148.26"/>
<polygon fill="midnightblue" stroke="midnightblue" points="246.99,-151.54 257.55,-152.43 249.85,-145.15 246.99,-151.54"/>
</g>
<!-- Node11&#45;&gt;Node4 -->
<g id="edge13" class="edge">
<title>Node11&#45;&gt;Node4</title>
<path fill="none" stroke="midnightblue" d="M187.44,-95.49C226.15,-90.19 280.84,-87.68 325,-105 354.66,-116.63 380,-144.59 394.36,-163.16"/>
<polygon fill="midnightblue" stroke="midnightblue" points="391.72,-165.48 400.5,-171.41 397.34,-161.3 391.72,-165.48"/>
</g>
<!-- Node11&#45;&gt;Node5 -->
<g id="edge14" class="edge">
<title>Node11&#45;&gt;Node5</title>
<path fill="none" stroke="midnightblue" d="M162.18,-95.46C185.35,-86.13 220.82,-71.84 246.8,-61.38"/>
<polygon fill="midnightblue" stroke="midnightblue" points="248.27,-64.55 256.24,-57.57 245.66,-58.06 248.27,-64.55"/>
</g>
<!-- Node11&#45;&gt;Node8 -->
<g id="edge17" class="edge">
<title>Node11&#45;&gt;Node8</title>
<path fill="none" stroke="midnightblue" d="M147.43,-95.25C163.5,-78.43 199.15,-44.3 237,-29 273.05,-14.42 316.71,-9.79 350.75,-8.74"/>
<polygon fill="midnightblue" stroke="midnightblue" points="351.06,-12.23 360.99,-8.52 350.91,-5.23 351.06,-12.23"/>
</g>
<!-- Node11&#45;&gt;Node9 -->
<g id="edge15" class="edge">
<title>Node11&#45;&gt;Node9</title>
<path fill="none" stroke="midnightblue" d="M201.39,-113.44C209.89,-114.59 218.54,-115.75 226.85,-116.86"/>
<polygon fill="midnightblue" stroke="midnightblue" points="226.4,-120.33 236.78,-118.2 227.34,-113.4 226.4,-120.33"/>
</g>
<!-- Node11&#45;&gt;Node10 -->
<g id="edge16" class="edge">
<title>Node11&#45;&gt;Node10</title>
<path fill="none" stroke="midnightblue" d="M184.09,-114.62C190.12,-117.08 195.95,-120.15 201,-124 224.83,-142.16 214.31,-161.43 237,-181 238.76,-182.52 240.66,-183.93 242.64,-185.24"/>
<polygon fill="midnightblue" stroke="midnightblue" points="241.31,-188.51 251.74,-190.39 244.76,-182.42 241.31,-188.51"/>
</g>
<!-- Node12&#45;&gt;Node3 -->
<g id="edge19" class="edge">
<title>Node12&#45;&gt;Node3</title>
<path fill="none" stroke="midnightblue" d="M195.65,-150.67C209.81,-152.57 224.73,-154.58 238.01,-156.36"/>
<polygon fill="midnightblue" stroke="midnightblue" points="237.9,-159.88 248.27,-157.74 238.83,-152.94 237.9,-159.88"/>
</g>
<!-- Node12&#45;&gt;Node4 -->
<g id="edge20" class="edge">
<title>Node12&#45;&gt;Node4</title>
<path fill="none" stroke="midnightblue" d="M184.09,-152.62C190.12,-155.08 195.95,-158.15 201,-162 224.83,-180.16 210.76,-204.54 237,-219 284.69,-245.29 349.4,-215.79 383.59,-195.98"/>
<polygon fill="midnightblue" stroke="midnightblue" points="385.61,-198.85 392.39,-190.71 382.01,-192.85 385.61,-198.85"/>
</g>
<!-- Node12&#45;&gt;Node5 -->
<g id="edge21" class="edge">
<title>Node12&#45;&gt;Node5</title>
<path fill="none" stroke="midnightblue" d="M180.01,-133.4C187.26,-130.89 194.54,-127.79 201,-124 227.14,-108.66 251.33,-83 265.88,-65.79"/>
<polygon fill="midnightblue" stroke="midnightblue" points="268.91,-67.61 272.57,-57.66 263.51,-63.16 268.91,-67.61"/>
</g>
<!-- Node12&#45;&gt;Node9 -->
<g id="edge22" class="edge">
<title>Node12&#45;&gt;Node9</title>
<path fill="none" stroke="midnightblue" d="M195.65,-135.33C205.89,-133.95 216.52,-132.52 226.65,-131.16"/>
<polygon fill="midnightblue" stroke="midnightblue" points="227.13,-134.63 236.57,-129.83 226.2,-127.69 227.13,-134.63"/>
</g>
<!-- Node12&#45;&gt;Node10 -->
<g id="edge23" class="edge">
<title>Node12&#45;&gt;Node10</title>
<path fill="none" stroke="midnightblue" d="M174.28,-152.6C183.13,-155.32 192.5,-158.5 201,-162 217.73,-168.88 220.72,-173.12 237,-181 240.62,-182.75 244.43,-184.53 248.23,-186.26"/>
<polygon fill="midnightblue" stroke="midnightblue" points="246.99,-189.54 257.55,-190.43 249.85,-183.15 246.99,-189.54"/>
</g>
</g>
</svg>
