<?xml version="1.0" encoding="UTF-8" standalone="no"?>
<!DOCTYPE svg PUBLIC "-//W3C//DTD SVG 1.1//EN"
 "http://www.w3.org/Graphics/SVG/1.1/DTD/svg11.dtd">
<!-- Generated by graphviz version 2.43.0 (0)
 -->
<!-- Title: test/funcional/main.cpp Pages: 1 -->
<svg width="282pt" height="252pt"
 viewBox="0.00 0.00 282.00 252.00" xmlns="http://www.w3.org/2000/svg" xmlns:xlink="http://www.w3.org/1999/xlink">
<g id="graph0" class="graph" transform="scale(1 1) rotate(0) translate(4 248)">
<title>test/funcional/main.cpp</title>
<polygon fill="white" stroke="transparent" points="-4,4 -4,-248 278,-248 278,4 -4,4"/>
<!-- Node1 -->
<g id="node1" class="node">
<title>Node1</title>
<g id="a_node1"><a xlink:title="Arquivo principal responsável por executar os testes funcionais do simulador.">
<polygon fill="#bfbfbf" stroke="black" points="116,-224.5 116,-243.5 234,-243.5 234,-224.5 116,-224.5"/>
<text text-anchor="middle" x="175" y="-231.5" font-family="Helvetica,sans-Serif" font-size="10.00">test/funcional/main.cpp</text>
</a>
</g>
</g>
<!-- Node2 -->
<g id="node2" class="node">
<title>Node2</title>
<g id="a_node2"><a xlink:href="funcional__tests_8h.html" target="_top" xlink:title="Declaração de fluxos de teste e protótipos de testes funcionais.">
<polygon fill="white" stroke="black" points="36.5,-168.5 36.5,-187.5 127.5,-187.5 127.5,-168.5 36.5,-168.5"/>
<text text-anchor="middle" x="82" y="-175.5" font-family="Helvetica,sans-Serif" font-size="10.00">funcional_tests.h</text>
</a>
</g>
</g>
<!-- Node1&#45;&gt;Node2 -->
<g id="edge1" class="edge">
<title>Node1&#45;&gt;Node2</title>
<path fill="none" stroke="midnightblue" d="M160.06,-224.32C145.41,-215.82 122.87,-202.73 105.76,-192.8"/>
<polygon fill="midnightblue" stroke="midnightblue" points="107.31,-189.65 96.9,-187.65 103.8,-195.7 107.31,-189.65"/>
</g>
<!-- Node3 -->
<g id="node3" class="node">
<title>Node3</title>
<g id="a_node3"><a xlink:href="Model_8h.html" target="_top" xlink:title="Declaração da classe Model, responsável pelo gerenciamento da simulação.">
<polygon fill="white" stroke="black" points="65,-112.5 65,-131.5 151,-131.5 151,-112.5 65,-112.5"/>
<text text-anchor="middle" x="108" y="-119.5" font-family="Helvetica,sans-Serif" font-size="10.00">../../src/Model.h</text>
</a>
</g>
</g>
<!-- Node1&#45;&gt;Node3 -->
<g id="edge8" class="edge">
<title>Node1&#45;&gt;Node3</title>
<path fill="none" stroke="midnightblue" d="M169.75,-224.14C162.3,-211.61 148.21,-187.99 136,-168 130.35,-158.76 123.98,-148.5 118.74,-140.12"/>
<polygon fill="midnightblue" stroke="midnightblue" points="121.68,-138.22 113.41,-131.6 115.75,-141.93 121.68,-138.22"/>
</g>
<!-- Node7 -->
<g id="node7" class="node">
<title>Node7</title>
<g id="a_node7"><a xlink:href="Flow_8h.html" target="_top" xlink:title="Declaração da classe abstrata Flow, que modela um fluxo entre dois Systems.">
<polygon fill="white" stroke="black" points="172,-56.5 172,-75.5 216,-75.5 216,-56.5 172,-56.5"/>
<text text-anchor="middle" x="194" y="-63.5" font-family="Helvetica,sans-Serif" font-size="10.00">Flow.h</text>
</a>
</g>
</g>
<!-- Node1&#45;&gt;Node7 -->
<g id="edge9" class="edge">
<title>Node1&#45;&gt;Node7</title>
<path fill="none" stroke="midnightblue" d="M176.02,-224.08C179.01,-197.95 187.8,-121.21 191.87,-85.58"/>
<polygon fill="midnightblue" stroke="midnightblue" points="195.36,-85.9 193.02,-75.57 188.4,-85.11 195.36,-85.9"/>
</g>
<!-- Node8 -->
<g id="node8" class="node">
<title>Node8</title>
<g id="a_node8"><a xlink:title=" ">
<polygon fill="white" stroke="#bfbfbf" points="222,-168.5 222,-187.5 274,-187.5 274,-168.5 222,-168.5"/>
<text text-anchor="middle" x="248" y="-175.5" font-family="Helvetica,sans-Serif" font-size="10.00">assert.h</text>
</a>
</g>
</g>
<!-- Node1&#45;&gt;Node8 -->
<g id="edge10" class="edge">
<title>Node1&#45;&gt;Node8</title>
<path fill="none" stroke="midnightblue" d="M186.73,-224.32C197.84,-216.11 214.74,-203.6 227.98,-193.81"/>
<polygon fill="midnightblue" stroke="midnightblue" points="230.1,-196.59 236.06,-187.83 225.94,-190.97 230.1,-196.59"/>
</g>
<!-- Node2&#45;&gt;Node3 -->
<g id="edge2" class="edge">
<title>Node2&#45;&gt;Node3</title>
<path fill="none" stroke="midnightblue" d="M86.29,-168.08C89.85,-160.69 95.02,-149.95 99.42,-140.81"/>
<polygon fill="midnightblue" stroke="midnightblue" points="102.6,-142.28 103.79,-131.75 96.29,-139.24 102.6,-142.28"/>
</g>
<!-- Node4 -->
<g id="node4" class="node">
<title>Node4</title>
<g id="a_node4"><a xlink:title=" ">
<polygon fill="white" stroke="#bfbfbf" points="0,-56.5 0,-75.5 54,-75.5 54,-56.5 0,-56.5"/>
<text text-anchor="middle" x="27" y="-63.5" font-family="Helvetica,sans-Serif" font-size="10.00">iostream</text>
</a>
</g>
</g>
<!-- Node3&#45;&gt;Node4 -->
<g id="edge3" class="edge">
<title>Node3&#45;&gt;Node4</title>
<path fill="none" stroke="midnightblue" d="M94.99,-112.32C82.47,-103.98 63.32,-91.21 48.53,-81.35"/>
<polygon fill="midnightblue" stroke="midnightblue" points="50.24,-78.29 39.98,-75.65 46.36,-84.11 50.24,-78.29"/>
</g>
<!-- Node5 -->
<g id="node5" class="node">
<title>Node5</title>
<g id="a_node5"><a xlink:title=" ">
<polygon fill="white" stroke="#bfbfbf" points="72,-56.5 72,-75.5 116,-75.5 116,-56.5 72,-56.5"/>
<text text-anchor="middle" x="94" y="-63.5" font-family="Helvetica,sans-Serif" font-size="10.00">vector</text>
</a>
</g>
</g>
<!-- Node3&#45;&gt;Node5 -->
<g id="edge4" class="edge">
<title>Node3&#45;&gt;Node5</title>
<path fill="none" stroke="midnightblue" d="M105.69,-112.08C103.83,-104.93 101.16,-94.64 98.85,-85.69"/>
<polygon fill="midnightblue" stroke="midnightblue" points="102.17,-84.55 96.27,-75.75 95.39,-86.31 102.17,-84.55"/>
</g>
<!-- Node6 -->
<g id="node6" class="node">
<title>Node6</title>
<g id="a_node6"><a xlink:href="System_8h.html" target="_top" xlink:title="Declaração da classe System, que representa um elemento básico do modelo.">
<polygon fill="white" stroke="black" points="139.5,-0.5 139.5,-19.5 198.5,-19.5 198.5,-0.5 139.5,-0.5"/>
<text text-anchor="middle" x="169" y="-7.5" font-family="Helvetica,sans-Serif" font-size="10.00">System.h</text>
</a>
</g>
</g>
<!-- Node3&#45;&gt;Node6 -->
<g id="edge5" class="edge">
<title>Node3&#45;&gt;Node6</title>
<path fill="none" stroke="midnightblue" d="M112.79,-112.37C122.76,-94.38 145.96,-52.55 159.23,-28.63"/>
<polygon fill="midnightblue" stroke="midnightblue" points="162.45,-30.03 164.24,-19.59 156.33,-26.64 162.45,-30.03"/>
</g>
<!-- Node3&#45;&gt;Node7 -->
<g id="edge6" class="edge">
<title>Node3&#45;&gt;Node7</title>
<path fill="none" stroke="midnightblue" d="M121.82,-112.32C135.23,-103.9 155.82,-90.97 171.59,-81.07"/>
<polygon fill="midnightblue" stroke="midnightblue" points="173.61,-83.94 180.22,-75.65 169.89,-78.01 173.61,-83.94"/>
</g>
<!-- Node7&#45;&gt;Node6 -->
<g id="edge7" class="edge">
<title>Node7&#45;&gt;Node6</title>
<path fill="none" stroke="midnightblue" d="M189.87,-56.08C186.49,-48.77 181.58,-38.18 177.38,-29.1"/>
<polygon fill="midnightblue" stroke="midnightblue" points="180.43,-27.36 173.05,-19.75 174.08,-30.3 180.43,-27.36"/>
</g>
</g>
</svg>
