<?xml version="1.0" encoding="UTF-8" standalone="no"?>
<!DOCTYPE svg PUBLIC "-//W3C//DTD SVG 1.1//EN"
 "http://www.w3.org/Graphics/SVG/1.1/DTD/svg11.dtd">
<!-- Generated by graphviz version 2.43.0 (0)
 -->
<!-- Title: src/Model.h Pages: 1 -->
<svg width="309pt" height="162pt"
 viewBox="0.00 0.00 309.00 162.00" xmlns="http://www.w3.org/2000/svg" xmlns:xlink="http://www.w3.org/1999/xlink">
<g id="graph0" class="graph" transform="scale(1 1) rotate(0) translate(4 158)">
<title>src/Model.h</title>
<polygon fill="white" stroke="transparent" points="-4,4 -4,-158 305,-158 305,4 -4,4"/>
<!-- Node1 -->
<g id="node1" class="node">
<title>Node1</title>
<g id="a_node1"><a xlink:title="Declaração da classe Model, responsável pelo gerenciamento da simulação.">
<polygon fill="#bfbfbf" stroke="black" points="121,-134.5 121,-153.5 189,-153.5 189,-134.5 121,-134.5"/>
<text text-anchor="middle" x="155" y="-141.5" font-family="Helvetica,sans-Serif" font-size="10.00">src/Model.h</text>
</a>
</g>
</g>
<!-- Node2 -->
<g id="node2" class="node">
<title>Node2</title>
<g id="a_node2"><a xlink:href="Model_8cpp.html" target="_top" xlink:title="Implementação da classe Model.">
<polygon fill="white" stroke="black" points="0,-73 0,-92 78,-92 78,-73 0,-73"/>
<text text-anchor="middle" x="39" y="-80" font-family="Helvetica,sans-Serif" font-size="10.00">src/Model.cpp</text>
</a>
</g>
</g>
<!-- Node1&#45;&gt;Node2 -->
<g id="edge1" class="edge">
<title>Node1&#45;&gt;Node2</title>
<path fill="none" stroke="midnightblue" d="M129.4,-129.87C106.91,-118.33 74.87,-101.9 55.59,-92.01"/>
<polygon fill="midnightblue" stroke="midnightblue" points="127.88,-133.03 138.38,-134.48 131.08,-126.8 127.88,-133.03"/>
</g>
<!-- Node3 -->
<g id="node3" class="node">
<title>Node3</title>
<g id="a_node3"><a xlink:href="funcional__tests_8h.html" target="_top" xlink:title="Declaração de fluxos de teste e protótipos de testes funcionais.">
<polygon fill="white" stroke="black" points="96.5,-67.5 96.5,-97.5 213.5,-97.5 213.5,-67.5 96.5,-67.5"/>
<text text-anchor="start" x="104.5" y="-85.5" font-family="Helvetica,sans-Serif" font-size="10.00">test/funcional/funcional</text>
<text text-anchor="middle" x="155" y="-74.5" font-family="Helvetica,sans-Serif" font-size="10.00">_tests.h</text>
</a>
</g>
</g>
<!-- Node1&#45;&gt;Node3 -->
<g id="edge2" class="edge">
<title>Node1&#45;&gt;Node3</title>
<path fill="none" stroke="midnightblue" d="M155,-124.23C155,-115.59 155,-105.5 155,-97.52"/>
<polygon fill="midnightblue" stroke="midnightblue" points="151.5,-124.48 155,-134.48 158.5,-124.48 151.5,-124.48"/>
</g>
<!-- Node5 -->
<g id="node5" class="node">
<title>Node5</title>
<g id="a_node5"><a xlink:href="main_8cpp.html" target="_top" xlink:title="Arquivo principal responsável por executar os testes funcionais do simulador.">
<polygon fill="white" stroke="black" points="183,-6 183,-25 301,-25 301,-6 183,-6"/>
<text text-anchor="middle" x="242" y="-13" font-family="Helvetica,sans-Serif" font-size="10.00">test/funcional/main.cpp</text>
</a>
</g>
</g>
<!-- Node1&#45;&gt;Node5 -->
<g id="edge5" class="edge">
<title>Node1&#45;&gt;Node5</title>
<path fill="none" stroke="midnightblue" d="M184.73,-129.79C198.32,-122.31 213.48,-111.69 223,-98 238.84,-75.22 241.62,-41.06 242.01,-25.19"/>
<polygon fill="midnightblue" stroke="midnightblue" points="182.94,-126.77 175.66,-134.46 186.15,-132.99 182.94,-126.77"/>
</g>
<!-- Node4 -->
<g id="node4" class="node">
<title>Node4</title>
<g id="a_node4"><a xlink:href="funcional__tests_8cpp.html" target="_top" xlink:title="Implementação dos testes funcionais do simulador de sistemas.">
<polygon fill="white" stroke="black" points="47.5,-0.5 47.5,-30.5 164.5,-30.5 164.5,-0.5 47.5,-0.5"/>
<text text-anchor="start" x="55.5" y="-18.5" font-family="Helvetica,sans-Serif" font-size="10.00">test/funcional/funcional</text>
<text text-anchor="middle" x="106" y="-7.5" font-family="Helvetica,sans-Serif" font-size="10.00">_tests.cpp</text>
</a>
</g>
</g>
<!-- Node3&#45;&gt;Node4 -->
<g id="edge3" class="edge">
<title>Node3&#45;&gt;Node4</title>
<path fill="none" stroke="midnightblue" d="M138.16,-59.16C131.01,-49.68 122.9,-38.92 116.61,-30.58"/>
<polygon fill="midnightblue" stroke="midnightblue" points="135.55,-61.52 144.37,-67.4 141.14,-57.3 135.55,-61.52"/>
</g>
<!-- Node3&#45;&gt;Node5 -->
<g id="edge4" class="edge">
<title>Node3&#45;&gt;Node5</title>
<path fill="none" stroke="midnightblue" d="M181.98,-61.34C198.22,-49.21 218.06,-34.39 230.36,-25.19"/>
<polygon fill="midnightblue" stroke="midnightblue" points="179.79,-58.61 173.88,-67.4 183.98,-64.21 179.79,-58.61"/>
</g>
</g>
</svg>
