<?xml version="1.0" encoding="UTF-8" standalone="no"?>
<!DOCTYPE svg PUBLIC "-//W3C//DTD SVG 1.1//EN"
 "http://www.w3.org/Graphics/SVG/1.1/DTD/svg11.dtd">
<!-- Generated by graphviz version 2.43.0 (0)
 -->
<!-- Title: src/Model.cpp Pages: 1 -->
<svg width="227pt" height="196pt"
 viewBox="0.00 0.00 227.00 196.00" xmlns="http://www.w3.org/2000/svg" xmlns:xlink="http://www.w3.org/1999/xlink">
<g id="graph0" class="graph" transform="scale(1 1) rotate(0) translate(4 192)">
<title>src/Model.cpp</title>
<polygon fill="white" stroke="transparent" points="-4,4 -4,-192 223,-192 223,4 -4,4"/>
<!-- Node1 -->
<g id="node1" class="node">
<title>Node1</title>
<g id="a_node1"><a xlink:title="Implementação da classe Model.">
<polygon fill="#bfbfbf" stroke="black" points="116,-168.5 116,-187.5 194,-187.5 194,-168.5 116,-168.5"/>
<text text-anchor="middle" x="155" y="-175.5" font-family="Helvetica,sans-Serif" font-size="10.00">src/Model.cpp</text>
</a>
</g>
</g>
<!-- Node2 -->
<g id="node2" class="node">
<title>Node2</title>
<g id="a_node2"><a xlink:href="Model_8h.html" target="_top" xlink:title="Declaração da classe Model, responsável pelo gerenciamento da simulação.">
<polygon fill="white" stroke="black" points="93.5,-112.5 93.5,-131.5 144.5,-131.5 144.5,-112.5 93.5,-112.5"/>
<text text-anchor="middle" x="119" y="-119.5" font-family="Helvetica,sans-Serif" font-size="10.00">Model.h</text>
</a>
</g>
</g>
<!-- Node1&#45;&gt;Node2 -->
<g id="edge1" class="edge">
<title>Node1&#45;&gt;Node2</title>
<path fill="none" stroke="midnightblue" d="M149.06,-168.08C144.02,-160.53 136.66,-149.49 130.49,-140.23"/>
<polygon fill="midnightblue" stroke="midnightblue" points="133.29,-138.13 124.83,-131.75 127.47,-142.01 133.29,-138.13"/>
</g>
<!-- Node7 -->
<g id="node7" class="node">
<title>Node7</title>
<g id="a_node7"><a xlink:title=" ">
<polygon fill="white" stroke="#bfbfbf" points="163,-112.5 163,-131.5 219,-131.5 219,-112.5 163,-112.5"/>
<text text-anchor="middle" x="191" y="-119.5" font-family="Helvetica,sans-Serif" font-size="10.00">algorithm</text>
</a>
</g>
</g>
<!-- Node1&#45;&gt;Node7 -->
<g id="edge7" class="edge">
<title>Node1&#45;&gt;Node7</title>
<path fill="none" stroke="midnightblue" d="M160.94,-168.08C165.98,-160.53 173.34,-149.49 179.51,-140.23"/>
<polygon fill="midnightblue" stroke="midnightblue" points="182.53,-142.01 185.17,-131.75 176.71,-138.13 182.53,-142.01"/>
</g>
<!-- Node3 -->
<g id="node3" class="node">
<title>Node3</title>
<g id="a_node3"><a xlink:title=" ">
<polygon fill="white" stroke="#bfbfbf" points="0,-56.5 0,-75.5 54,-75.5 54,-56.5 0,-56.5"/>
<text text-anchor="middle" x="27" y="-63.5" font-family="Helvetica,sans-Serif" font-size="10.00">iostream</text>
</a>
</g>
</g>
<!-- Node2&#45;&gt;Node3 -->
<g id="edge2" class="edge">
<title>Node2&#45;&gt;Node3</title>
<path fill="none" stroke="midnightblue" d="M104.22,-112.32C89.73,-103.82 67.43,-90.73 50.51,-80.8"/>
<polygon fill="midnightblue" stroke="midnightblue" points="52.14,-77.7 41.74,-75.65 48.6,-83.74 52.14,-77.7"/>
</g>
<!-- Node4 -->
<g id="node4" class="node">
<title>Node4</title>
<g id="a_node4"><a xlink:title=" ">
<polygon fill="white" stroke="#bfbfbf" points="72,-56.5 72,-75.5 116,-75.5 116,-56.5 72,-56.5"/>
<text text-anchor="middle" x="94" y="-63.5" font-family="Helvetica,sans-Serif" font-size="10.00">vector</text>
</a>
</g>
</g>
<!-- Node2&#45;&gt;Node4 -->
<g id="edge3" class="edge">
<title>Node2&#45;&gt;Node4</title>
<path fill="none" stroke="midnightblue" d="M114.87,-112.08C111.49,-104.77 106.58,-94.18 102.38,-85.1"/>
<polygon fill="midnightblue" stroke="midnightblue" points="105.43,-83.36 98.05,-75.75 99.08,-86.3 105.43,-83.36"/>
</g>
<!-- Node5 -->
<g id="node5" class="node">
<title>Node5</title>
<g id="a_node5"><a xlink:href="System_8h.html" target="_top" xlink:title="Declaração da classe System, que representa um elemento básico do modelo.">
<polygon fill="white" stroke="black" points="139.5,-0.5 139.5,-19.5 198.5,-19.5 198.5,-0.5 139.5,-0.5"/>
<text text-anchor="middle" x="169" y="-7.5" font-family="Helvetica,sans-Serif" font-size="10.00">System.h</text>
</a>
</g>
</g>
<!-- Node2&#45;&gt;Node5 -->
<g id="edge4" class="edge">
<title>Node2&#45;&gt;Node5</title>
<path fill="none" stroke="midnightblue" d="M122.92,-112.37C131.07,-94.46 149.94,-52.92 160.84,-28.95"/>
<polygon fill="midnightblue" stroke="midnightblue" points="164.14,-30.14 165.09,-19.59 157.77,-27.25 164.14,-30.14"/>
</g>
<!-- Node6 -->
<g id="node6" class="node">
<title>Node6</title>
<g id="a_node6"><a xlink:href="Flow_8h.html" target="_top" xlink:title="Declaração da classe abstrata Flow, que modela um fluxo entre dois Systems.">
<polygon fill="white" stroke="black" points="172,-56.5 172,-75.5 216,-75.5 216,-56.5 172,-56.5"/>
<text text-anchor="middle" x="194" y="-63.5" font-family="Helvetica,sans-Serif" font-size="10.00">Flow.h</text>
</a>
</g>
</g>
<!-- Node2&#45;&gt;Node6 -->
<g id="edge5" class="edge">
<title>Node2&#45;&gt;Node6</title>
<path fill="none" stroke="midnightblue" d="M131.05,-112.32C142.46,-104.11 159.83,-91.6 173.43,-81.81"/>
<polygon fill="midnightblue" stroke="midnightblue" points="175.66,-84.52 181.73,-75.83 171.57,-78.84 175.66,-84.52"/>
</g>
<!-- Node6&#45;&gt;Node5 -->
<g id="edge6" class="edge">
<title>Node6&#45;&gt;Node5</title>
<path fill="none" stroke="midnightblue" d="M189.87,-56.08C186.49,-48.77 181.58,-38.18 177.38,-29.1"/>
<polygon fill="midnightblue" stroke="midnightblue" points="180.43,-27.36 173.05,-19.75 174.08,-30.3 180.43,-27.36"/>
</g>
</g>
</svg>
