<?xml version="1.0" encoding="UTF-8" standalone="no"?>
<!DOCTYPE svg PUBLIC "-//W3C//DTD SVG 1.1//EN"
 "http://www.w3.org/Graphics/SVG/1.1/DTD/svg11.dtd">
<!-- Generated by graphviz version 2.43.0 (0)
 -->
<!-- Title: src/System.h Pages: 1 -->
<svg width="388pt" height="263pt"
 viewBox="0.00 0.00 387.50 263.00" xmlns="http://www.w3.org/2000/svg" xmlns:xlink="http://www.w3.org/1999/xlink">
<g id="graph0" class="graph" transform="scale(1 1) rotate(0) translate(4 259)">
<title>src/System.h</title>
<polygon fill="white" stroke="transparent" points="-4,4 -4,-259 383.5,-259 383.5,4 -4,4"/>
<!-- Node1 -->
<g id="node1" class="node">
<title>Node1</title>
<g id="a_node1"><a xlink:title="Declaração da classe System, que representa um elemento básico do modelo.">
<polygon fill="#bfbfbf" stroke="black" points="91,-235.5 91,-254.5 166,-254.5 166,-235.5 91,-235.5"/>
<text text-anchor="middle" x="128.5" y="-242.5" font-family="Helvetica,sans-Serif" font-size="10.00">src/System.h</text>
</a>
</g>
</g>
<!-- Node2 -->
<g id="node2" class="node">
<title>Node2</title>
<g id="a_node2"><a xlink:href="Flow_8cpp.html" target="_top" xlink:title="Implementação da classe Flow.">
<polygon fill="white" stroke="black" points="0,-123.5 0,-142.5 71,-142.5 71,-123.5 0,-123.5"/>
<text text-anchor="middle" x="35.5" y="-130.5" font-family="Helvetica,sans-Serif" font-size="10.00">src/Flow.cpp</text>
</a>
</g>
</g>
<!-- Node1&#45;&gt;Node2 -->
<g id="edge1" class="edge">
<title>Node1&#45;&gt;Node2</title>
<path fill="none" stroke="midnightblue" d="M99.64,-230.65C85.88,-223.04 70.15,-212.35 59.5,-199 45.85,-181.88 39.48,-156.25 36.93,-142.86"/>
<polygon fill="midnightblue" stroke="midnightblue" points="98.27,-233.88 108.76,-235.41 101.51,-227.68 98.27,-233.88"/>
</g>
<!-- Node3 -->
<g id="node3" class="node">
<title>Node3</title>
<g id="a_node3"><a xlink:href="Flow_8h.html" target="_top" xlink:title="Declaração da classe abstrata Flow, que modela um fluxo entre dois Systems.">
<polygon fill="white" stroke="black" points="69,-179.5 69,-198.5 130,-198.5 130,-179.5 69,-179.5"/>
<text text-anchor="middle" x="99.5" y="-186.5" font-family="Helvetica,sans-Serif" font-size="10.00">src/Flow.h</text>
</a>
</g>
</g>
<!-- Node1&#45;&gt;Node3 -->
<g id="edge2" class="edge">
<title>Node1&#45;&gt;Node3</title>
<path fill="none" stroke="midnightblue" d="M118.82,-225.98C113.9,-216.82 108.14,-206.09 104.2,-198.75"/>
<polygon fill="midnightblue" stroke="midnightblue" points="115.9,-227.93 123.71,-235.08 122.06,-224.62 115.9,-227.93"/>
</g>
<!-- Node4 -->
<g id="node4" class="node">
<title>Node4</title>
<g id="a_node4"><a xlink:href="Model_8h.html" target="_top" xlink:title="Declaração da classe Model, responsável pelo gerenciamento da simulação.">
<polygon fill="white" stroke="black" points="152.5,-123.5 152.5,-142.5 220.5,-142.5 220.5,-123.5 152.5,-123.5"/>
<text text-anchor="middle" x="186.5" y="-130.5" font-family="Helvetica,sans-Serif" font-size="10.00">src/Model.h</text>
</a>
</g>
</g>
<!-- Node1&#45;&gt;Node4 -->
<g id="edge10" class="edge">
<title>Node1&#45;&gt;Node4</title>
<path fill="none" stroke="midnightblue" d="M137.82,-226.32C150.45,-202.37 172.5,-160.55 181.97,-142.59"/>
<polygon fill="midnightblue" stroke="midnightblue" points="134.62,-224.89 133.05,-235.37 140.81,-228.16 134.62,-224.89"/>
</g>
<!-- Node9 -->
<g id="node8" class="node">
<title>Node9</title>
<g id="a_node8"><a xlink:href="System_8cpp.html" target="_top" xlink:title="Implementação da classe System.">
<polygon fill="white" stroke="black" points="186.5,-179.5 186.5,-198.5 272.5,-198.5 272.5,-179.5 186.5,-179.5"/>
<text text-anchor="middle" x="229.5" y="-186.5" font-family="Helvetica,sans-Serif" font-size="10.00">src/System.cpp</text>
</a>
</g>
</g>
<!-- Node1&#45;&gt;Node9 -->
<g id="edge11" class="edge">
<title>Node1&#45;&gt;Node9</title>
<path fill="none" stroke="midnightblue" d="M153.58,-230.59C172.26,-220.61 197.2,-207.27 213.31,-198.65"/>
<polygon fill="midnightblue" stroke="midnightblue" points="151.9,-227.52 144.73,-235.32 155.2,-233.7 151.9,-227.52"/>
</g>
<!-- Node3&#45;&gt;Node2 -->
<g id="edge3" class="edge">
<title>Node3&#45;&gt;Node2</title>
<path fill="none" stroke="midnightblue" d="M81.51,-172.82C70.04,-163.15 55.59,-150.95 45.97,-142.83"/>
<polygon fill="midnightblue" stroke="midnightblue" points="79.32,-175.55 89.22,-179.32 83.83,-170.2 79.32,-175.55"/>
</g>
<!-- Node3&#45;&gt;Node4 -->
<g id="edge4" class="edge">
<title>Node3&#45;&gt;Node4</title>
<path fill="none" stroke="midnightblue" d="M122.22,-173.9C138.17,-164 159,-151.07 172.56,-142.65"/>
<polygon fill="midnightblue" stroke="midnightblue" points="120.13,-171.08 113.48,-179.32 123.82,-177.02 120.13,-171.08"/>
</g>
<!-- Node8 -->
<g id="node7" class="node">
<title>Node8</title>
<g id="a_node7"><a xlink:href="main_8cpp.html" target="_top" xlink:title="Arquivo principal responsável por executar os testes funcionais do simulador.">
<polygon fill="white" stroke="black" points="127.5,-0.5 127.5,-19.5 245.5,-19.5 245.5,-0.5 127.5,-0.5"/>
<text text-anchor="middle" x="186.5" y="-7.5" font-family="Helvetica,sans-Serif" font-size="10.00">test/funcional/main.cpp</text>
</a>
</g>
</g>
<!-- Node3&#45;&gt;Node8 -->
<g id="edge9" class="edge">
<title>Node3&#45;&gt;Node8</title>
<path fill="none" stroke="midnightblue" d="M97.84,-169.44C96.35,-142.32 97.14,-91.29 119.5,-56 130.3,-38.96 150.15,-26.85 165.45,-19.52"/>
<polygon fill="midnightblue" stroke="midnightblue" points="94.36,-169.75 98.57,-179.48 101.34,-169.25 94.36,-169.75"/>
</g>
<!-- Node5 -->
<g id="node5" class="node">
<title>Node5</title>
<g id="a_node5"><a xlink:href="Model_8cpp.html" target="_top" xlink:title="Implementação da classe Model.">
<polygon fill="white" stroke="black" points="301.5,-62 301.5,-81 379.5,-81 379.5,-62 301.5,-62"/>
<text text-anchor="middle" x="340.5" y="-69" font-family="Helvetica,sans-Serif" font-size="10.00">src/Model.cpp</text>
</a>
</g>
</g>
<!-- Node4&#45;&gt;Node5 -->
<g id="edge5" class="edge">
<title>Node4&#45;&gt;Node5</title>
<path fill="none" stroke="midnightblue" d="M218.12,-119.78C248.05,-108.22 292.19,-91.16 318.48,-81.01"/>
<polygon fill="midnightblue" stroke="midnightblue" points="216.63,-116.61 208.56,-123.48 219.15,-123.14 216.63,-116.61"/>
</g>
<!-- Node6 -->
<g id="node6" class="node">
<title>Node6</title>
<g id="a_node6"><a xlink:href="funcional__tests_8h.html" target="_top" xlink:title="Declaração de fluxos de teste e protótipos de testes funcionais.">
<polygon fill="white" stroke="red" points="128,-56.5 128,-86.5 245,-86.5 245,-56.5 128,-56.5"/>
<text text-anchor="start" x="136" y="-74.5" font-family="Helvetica,sans-Serif" font-size="10.00">test/funcional/funcional</text>
<text text-anchor="middle" x="186.5" y="-63.5" font-family="Helvetica,sans-Serif" font-size="10.00">_tests.h</text>
</a>
</g>
</g>
<!-- Node4&#45;&gt;Node6 -->
<g id="edge6" class="edge">
<title>Node4&#45;&gt;Node6</title>
<path fill="none" stroke="midnightblue" d="M186.5,-113.23C186.5,-104.59 186.5,-94.5 186.5,-86.52"/>
<polygon fill="midnightblue" stroke="midnightblue" points="183,-113.48 186.5,-123.48 190,-113.48 183,-113.48"/>
</g>
<!-- Node4&#45;&gt;Node8 -->
<g id="edge8" class="edge">
<title>Node4&#45;&gt;Node8</title>
<path fill="none" stroke="midnightblue" d="M219.09,-118.9C232.6,-111.65 246.88,-101.18 254.5,-87 261.02,-74.86 261.02,-68.14 254.5,-56 245.12,-38.54 225.66,-26.72 209.95,-19.59"/>
<polygon fill="midnightblue" stroke="midnightblue" points="217.37,-115.84 209.95,-123.41 220.47,-122.12 217.37,-115.84"/>
</g>
<!-- Node6&#45;&gt;Node8 -->
<g id="edge7" class="edge">
<title>Node6&#45;&gt;Node8</title>
<path fill="none" stroke="midnightblue" d="M186.5,-46.29C186.5,-36.86 186.5,-26.65 186.5,-19.66"/>
<polygon fill="midnightblue" stroke="midnightblue" points="183,-46.4 186.5,-56.4 190,-46.4 183,-46.4"/>
</g>
</g>
</svg>
